<?xml version="1.0" encoding="UTF-8"?>
<svg width="195px" height="116px" viewBox="0 0 195 116" version="1.1" xmlns="http://www.w3.org/2000/svg" xmlns:xlink="http://www.w3.org/1999/xlink">
    <!-- Generator: Sketch 49 (51002) - http://www.bohemiancoding.com/sketch -->
    <title>cloud 01</title>
    <desc>Created with Sketch.</desc>
    <defs>
        <path d="M200.5,3693 C210.717268,3693 219,3701.28273 219,3711.5 C219,3721.71727 210.717268,3730 200.5,3730 L142.5,3730 C132.282732,3730 124,3721.71727 124,3711.5 C124,3701.28273 132.282732,3693 142.5,3693 L110.5,3693 C100.282732,3693 92,3684.71727 92,3674.5 C92,3664.28273 100.282732,3656 110.5,3656 L234.5,3656 C244.717268,3656 253,3664.28273 253,3674.5 C253,3684.71727 244.717268,3693 234.5,3693 L200.5,3693 Z" id="path-1"></path>
        <filter x="-29.2%" y="-47.3%" width="158.4%" height="227.0%" filterUnits="objectBoundingBox" id="filter-2">
            <feOffset dx="0" dy="10" in="SourceAlpha" result="shadowOffsetOuter1"></feOffset>
            <feGaussianBlur stdDeviation="8" in="shadowOffsetOuter1" result="shadowBlurOuter1"></feGaussianBlur>
            <feColorMatrix values="0 0 0 0 0   0 0 0 0 0   0 0 0 0 0  0 0 0 0.0897305254 0" type="matrix" in="shadowBlurOuter1" result="shadowMatrixOuter1"></feColorMatrix>
            <feOffset dx="0" dy="2" in="SourceAlpha" result="shadowOffsetOuter2"></feOffset>
            <feGaussianBlur stdDeviation="9" in="shadowOffsetOuter2" result="shadowBlurOuter2"></feGaussianBlur>
            <feColorMatrix values="0 0 0 0 0   0 0 0 0 0   0 0 0 0 0  0 0 0 0.03 0" type="matrix" in="shadowBlurOuter2" result="shadowMatrixOuter2"></feColorMatrix>
            <feMerge>
                <feMergeNode in="shadowMatrixOuter1"></feMergeNode>
                <feMergeNode in="shadowMatrixOuter2"></feMergeNode>
            </feMerge>
        </filter>
    </defs>
    <g id="Page-1" stroke="none" stroke-width="1" fill="none" fill-rule="evenodd">
        <g id="Tablet" transform="translate(-75.000000, -3640.000000)">
            <g id="cloud-01">
                <use fill="black" fill-opacity="1" filter="url(#filter-2)" xlink:href="#path-1"></use>
                <use fill="#FFFFFF" fill-rule="evenodd" xlink:href="#path-1"></use>
            </g>
        </g>
    </g>
</svg>