<?xml version="1.0" encoding="UTF-8"?>
<svg width="178px" height="40px" viewBox="0 0 178 40" version="1.1" xmlns="http://www.w3.org/2000/svg" xmlns:xlink="http://www.w3.org/1999/xlink">
    <!-- Generator: Sketch 49 (51002) - http://www.bohemiancoding.com/sketch -->
    <title>Group 11</title>
    <desc>Created with Sketch.</desc>
    <defs></defs>
    <g id="Symbols" stroke="none" stroke-width="1" fill="none" fill-rule="evenodd">
        <g id="Header" transform="translate(-15.000000, -12.000000)" fill="#5486F4">
            <g id="Group-11" transform="translate(16.000000, 13.000000)">
                <g id="ICP" transform="translate(58.367347, 26.938776)" stroke="#5486F4" stroke-width="0.5">
                    <path d="M0,0.799252535 C0,0.500119194 0.213975961,0.360836359 0.502284212,0.360836359 C0.802139226,0.360836359 1.02621861,0.500119194 1.02621861,0.799252535 L1.02621861,8.37898109 C1.02621861,8.66765018 0.802139226,8.81739727 0.502284212,8.81739727 C0.213975961,8.81739727 0,8.66765018 0,8.37898109 L0,0.799252535 Z" id="Fill-12"></path>
                    <path d="M8.16536597,8.23678228 C8.16536597,8.5258122 7.95139001,8.6647342 7.67318518,8.6647342 C7.38487693,8.6647342 7.18136522,8.5258122 7.18136522,8.23678228 L7.18136522,4.8160536 C7.18136522,3.90710681 6.818003,3.39435834 6.01658545,3.39435834 C5.43888644,3.39435834 4.95789157,3.65091299 4.59452936,4.15319721 C4.32751045,4.51655942 4.26472493,4.82832203 4.22034206,5.24364468 L4.22034206,8.23678228 C4.22034206,8.5258122 4.01719119,8.6647342 3.73898635,8.6647342 C3.43985301,8.6647342 3.24752723,8.5258122 3.24752723,8.23678228 L3.24752723,3.03063529 C3.24752723,2.75243046 3.4506781,2.6138693 3.74981144,2.6138693 C4.02801628,2.6138693 4.22034206,2.75243046 4.22034206,3.03063529 L4.22034206,3.31930438 C4.56457994,2.77696733 5.19351772,2.49840166 6.20927207,2.52799024 C7.43250732,2.56407388 8.16536597,3.2976542 8.16536597,4.61326356 L8.16536597,8.23678228 Z" id="Fill-14"></path>
                    <path d="M48.5790382,8.23678228 C48.5790382,8.5258122 48.3650622,8.6647342 48.0868574,8.6647342 C47.7985491,8.6647342 47.5950374,8.5258122 47.5950374,8.23678228 L47.5950374,4.8160536 C47.5950374,3.90710681 47.2316752,3.39435834 46.4298968,3.39435834 C45.8525587,3.39435834 45.3715638,3.65091299 45.0082016,4.15319721 C44.7411827,4.51655942 44.6783971,4.82832203 44.6340143,5.24364468 L44.6340143,8.23678228 C44.6340143,8.5258122 44.4308634,8.6647342 44.1526586,8.6647342 C43.8535252,8.6647342 43.6611994,8.5258122 43.6611994,8.23678228 L43.6611994,3.03063529 C43.6611994,2.75243046 43.8643503,2.6138693 44.1634837,2.6138693 C44.4416885,2.6138693 44.6340143,2.75243046 44.6340143,3.03063529 L44.6340143,3.31930438 C44.9782522,2.77696733 45.6071899,2.49840166 46.6225834,2.52799024 C47.8461795,2.56407388 48.5790382,3.2976542 48.5790382,4.61326356 L48.5790382,8.23678228 Z" id="Fill-16"></path>
                    <path d="M10.9506618,1.50973933 C10.9506618,1.23189533 11.1325234,1.08250908 11.4316567,1.08250908 C11.7095007,1.08250908 11.9130124,1.23189533 11.9130124,1.50973933 L11.9130124,2.80333767 L13.2813039,2.80333767 C13.5479619,2.80333767 13.6767805,2.97437411 13.6767805,3.23092876 C13.6767805,3.47737999 13.5371368,3.64841643 13.2813039,3.64841643 L11.9130124,3.64841643 L11.9130124,7.22971729 C11.9130124,7.75365168 12.1370918,7.9780919 12.5325684,7.9780919 C12.7999482,7.9780919 12.9818097,7.90303794 13.1633104,7.79623037 C13.2275393,7.7637551 13.2914073,7.74282659 13.355997,7.74282659 C13.5162083,7.74282659 13.6443052,7.86009841 13.7085341,8.02030975 C13.7406486,8.09572455 13.7514736,8.1805211 13.7514736,8.2559359 C13.7514736,8.40532215 13.6872448,8.5547084 13.5270334,8.64058745 C13.2167142,8.79033454 12.9284059,8.87549192 12.4687004,8.87549192 C11.591868,8.87549192 10.9506618,8.43779742 10.9506618,7.31523551 L10.9506618,3.64841643 L10.1164082,3.64841643 C9.86021435,3.64841643 9.7425817,3.47737999 9.7425817,3.23092876 C9.7425817,2.9851992 9.86021435,2.80333767 10.1272333,2.80333767 L10.9506618,2.80333767 L10.9506618,1.50973933 Z" id="Fill-20"></path>
                    <path d="M18.5495147,5.03835808 C18.6675082,5.03835808 18.7097261,4.99505772 18.7097261,4.89907525 L18.7097261,4.84567147 C18.58199,4.0868326 18.1219236,3.30634356 17.1386445,3.30634356 C16.1124259,3.30634356 15.5563771,3.9904893 15.4174551,5.03835808 L18.5495147,5.03835808 Z M15.3849798,5.81884713 C15.40663,7.13337398 16.0586613,7.95680255 17.2133377,7.95680255 C17.9833625,7.95680255 18.4109535,7.57179016 18.6675082,7.00527708 C18.7634907,6.8129513 18.9024127,6.73789733 19.0521598,6.73789733 C19.1268529,6.73789733 19.2022677,6.75954751 19.2769608,6.78047602 C19.4588223,6.83460148 19.6082086,6.96233755 19.6082086,7.15466333 C19.6082086,7.2188922 19.5973835,7.28348191 19.5548048,7.34734994 C19.2127319,8.05278503 18.5928151,8.75858094 17.2028734,8.75858094 C15.4495696,8.75858094 14.4334544,7.51838638 14.4334544,5.6687392 C14.4334544,3.81945286 15.3958049,2.52585451 17.1386445,2.52585451 C18.6996226,2.52585451 19.5757333,3.74475973 19.6829017,5.14480481 L19.6829017,5.23068386 C19.6829017,5.61569626 19.4797508,5.81884713 19.1481422,5.81884713 L15.3849798,5.81884713 Z" id="Fill-22"></path>
                    <path d="M21.2893452,0.788427445 C21.2893452,0.500119194 21.4820318,0.360836359 21.781526,0.360836359 C22.0698342,0.360836359 22.26216,0.500119194 22.26216,0.788427445 L22.26216,8.38944535 C22.26216,8.67847527 22.0698342,8.81703643 21.781526,8.81703643 C21.4820318,8.81703643 21.2893452,8.67847527 21.2893452,8.38944535 L21.2893452,0.788427445 Z" id="Fill-24"></path>
                    <path d="M24.1760361,0.788427445 C24.1760361,0.500119194 24.3687227,0.360836359 24.6682169,0.360836359 C24.9565251,0.360836359 25.1492117,0.500119194 25.1492117,0.788427445 L25.1492117,8.38944535 C25.1492117,8.67847527 24.9565251,8.81703643 24.6682169,8.81703643 C24.3687227,8.81703643 24.1760361,8.67847527 24.1760361,8.38944535 L24.1760361,0.788427445 Z" id="Fill-26"></path>
                    <path d="M27.2976314,3.19412345 C27.2976314,2.91591862 27.4794929,2.77735746 27.7786263,2.77735746 C28.0672954,2.77735746 28.2708071,2.91591862 28.2708071,3.19412345 L28.2708071,8.40027044 C28.2708071,8.68930036 28.0672954,8.82822236 27.7786263,8.82822236 C27.4794929,8.82822236 27.2976314,8.68930036 27.2976314,8.40027044 L27.2976314,3.19412345 Z M28.5057115,1.07745737 C28.5057115,1.4945842 28.1852888,1.80454263 27.7894514,1.80454263 C27.3831496,1.80454263 27.0627269,1.4945842 27.0627269,1.07745737 C27.0627269,0.671516464 27.3831496,0.360836359 27.7894514,0.360836359 C28.1852888,0.360836359 28.5057115,0.671516464 28.5057115,1.07745737 Z" id="Fill-28"></path>
                    <path d="M30.9334186,5.60487117 C30.9334186,6.96233755 31.660143,7.78576612 32.654608,7.78576612 C33.7450555,7.78576612 34.407551,6.85552999 34.407551,5.5298172 C34.407551,4.25786904 33.7558806,3.33845799 32.6654331,3.33845799 C31.5746248,3.33845799 30.9334186,4.2257546 30.9334186,5.60487117 Z M34.3862617,2.98592087 C34.3862617,2.76111982 34.5363696,2.60054764 34.8459672,2.60054764 C35.1349971,2.60054764 35.3060336,2.73946964 35.3060336,3.02813873 L35.3060336,7.97773106 C35.3060336,10.4368309 34.0124352,10.9928797 32.6008434,10.9928797 C31.4465279,10.9928797 30.7089783,10.6075064 30.3023158,10.0842937 C30.2492728,10.0096006 30.2171584,9.9341858 30.2171584,9.84866758 C30.2171584,9.71010642 30.2918515,9.57118442 30.4203093,9.47520195 C30.5058275,9.41025141 30.6230993,9.36803355 30.7302677,9.36803355 C30.8479003,9.36803355 30.9550687,9.41025141 31.040587,9.50659472 C31.4360636,9.96666107 31.9065942,10.1907405 32.5582647,10.1907405 C33.8944417,10.1907405 34.3761583,9.51741981 34.3862617,7.93551321 C34.3862617,7.88499612 34.3895092,7.81896306 34.3949217,7.74715663 C34.4028601,7.63637987 33.9759907,8.56589433 32.5261502,8.56589433 C31.0081117,8.56589433 29.9494178,7.38992863 29.9494178,5.60487117 C29.9494178,3.76568824 30.9013041,2.52585451 32.5478004,2.52585451 C34.0824375,2.52585451 34.3862617,3.42361537 34.3862617,3.30634356 L34.3862617,2.98592087 Z" id="Fill-30"></path>
                    <path d="M40.921369,5.03835808 C41.0390016,5.03835808 41.0815803,4.99505772 41.0815803,4.89907525 L41.0815803,4.84567147 C40.9534834,4.0868326 40.4937779,3.30634356 39.5104988,3.30634356 C38.4842802,3.30634356 37.9278705,3.9904893 37.7889485,5.03835808 L40.921369,5.03835808 Z M37.7568341,5.81884713 C37.7784843,7.13337398 38.4305156,7.95680255 39.5851919,7.95680255 C40.3548559,7.95680255 40.782447,7.57179016 41.0390016,7.00527708 C41.1353449,6.8129513 41.2742669,6.73789733 41.4236532,6.73789733 C41.499068,6.73789733 41.5737611,6.75954751 41.6484542,6.78047602 C41.8303158,6.83460148 41.9800629,6.96233755 41.9800629,7.15466333 C41.9800629,7.2188922 41.9692378,7.28348191 41.9262982,7.34734994 C41.5838645,8.05278503 40.9643085,8.75858094 39.5743668,8.75858094 C37.821063,8.75858094 36.8053086,7.51838638 36.8053086,5.6687392 C36.8053086,3.81945286 37.7676592,2.52585451 39.5104988,2.52585451 C41.0707552,2.52585451 41.9475876,3.74475973 42.054756,5.14480481 L42.054756,5.23068386 C42.054756,5.61569626 41.8512443,5.81884713 41.5199965,5.81884713 L37.7568341,5.81884713 Z" id="Fill-32"></path>
                    <path d="M51.364334,1.50973933 C51.364334,1.23189533 51.5458347,1.08250908 51.8453289,1.08250908 C52.1231729,1.08250908 52.3259629,1.23189533 52.3259629,1.50973933 L52.3259629,2.80333767 L53.6946152,2.80333767 C53.9616342,2.80333767 54.0904527,2.97437411 54.0904527,3.23092876 C54.0904527,3.47737999 53.9515307,3.64841643 53.6946152,3.64841643 L52.3259629,3.64841643 L52.3259629,7.22971729 C52.3259629,7.75365168 52.550764,7.9780919 52.9462406,7.9780919 C53.2136204,7.9780919 53.3951211,7.90303794 53.5769826,7.79623037 C53.6412115,7.7637551 53.7050795,7.74282659 53.7696692,7.74282659 C53.9298806,7.74282659 54.0579775,7.86009841 54.1225672,8.02030975 C54.1543208,8.09572455 54.1651459,8.1805211 54.1651459,8.2559359 C54.1651459,8.40532215 54.100917,8.5547084 53.9407056,8.64058745 C53.6303864,8.79033454 53.3420781,8.87549192 52.8823726,8.87549192 C52.0055403,8.87549192 51.364334,8.43779742 51.364334,7.31523551 L51.364334,3.64841643 L50.5304412,3.64841643 C50.2735257,3.64841643 50.1562539,3.47737999 50.1562539,3.23092876 C50.1562539,2.9851992 50.2735257,2.80333767 50.5409055,2.80333767 L51.364334,2.80333767 L51.364334,1.50973933 Z" id="Fill-34"></path>
                    <path d="M77.5798172,2.9534456 C77.5798172,2.66477651 77.794154,2.52585451 78.071998,2.52585451 C78.3603062,2.52585451 78.563818,2.66477651 78.563818,2.9534456 L78.563818,6.37417428 C78.563818,7.28312107 78.9271802,7.79623037 79.7289586,7.79623037 C80.3066576,7.79623037 80.7876524,7.53967572 81.1510146,7.03703067 C81.4180336,6.67366846 81.4808191,6.36190585 81.525202,5.94694403 L81.525202,2.9534456 C81.525202,2.66477651 81.7283528,2.52585451 82.0065577,2.52585451 C82.3053302,2.52585451 82.4980168,2.66477651 82.4980168,2.9534456 L82.4980168,8.15995342 C82.4980168,8.43779742 82.2945051,8.57671942 81.9953717,8.57671942 C81.7175277,8.57671942 81.525202,8.43779742 81.525202,8.15995342 L81.525202,7.8709235 C81.1806032,8.41326055 80.5516655,8.69182622 79.5362719,8.6618768 C78.3126758,8.62651484 77.5798172,7.89257368 77.5798172,6.57732515 L77.5798172,2.9534456 Z" id="Fill-18"></path>
                    <path d="M65.9767632,1.9243403 C66.0092385,1.99903343 66.0193419,2.07408739 66.0193419,2.13795543 C66.0193419,2.36275648 65.8483055,2.51214273 65.6877333,2.56554651 C65.6025759,2.59766095 65.5170577,2.60848604 65.4311787,2.60848604 C65.2493171,2.60848604 65.0786415,2.53379291 64.9826591,2.33028121 C64.6615147,1.56061725 64.1274769,0.929875297 62.9085717,0.929875297 C61.3046541,0.929875297 60.2466819,2.22347364 60.2466819,4.33003631 C60.2466819,6.39293777 61.3046541,7.71865056 62.9085717,7.71865056 C64.1917058,7.71865056 64.8007975,6.94862577 65.0786415,6.0934436 C65.1641598,5.85853913 65.3564855,5.76219582 65.5599972,5.76219582 C65.6238653,5.76219582 65.6985584,5.77302091 65.7736124,5.79431025 C65.9551131,5.83688894 66.1477997,5.99746112 66.1477997,6.22226218 C66.1477997,6.28613021 66.1369746,6.33953399 66.1156852,6.40340203 C65.7418588,7.46173507 64.8433762,8.65935095 62.9403253,8.65935095 C60.6417977,8.65935095 59.1771629,6.98110104 59.1771629,4.31921122 C59.1771629,1.72118943 60.6417977,0 62.8656322,0 C64.7473938,0 65.5917508,0.983639915 65.9767632,1.9243403" id="Fill-36"></path>
                    <path d="M67.8372355,0.788427445 C67.8372355,0.500119194 68.0295613,0.360836359 68.3286946,0.360836359 C68.6177246,0.360836359 68.8100503,0.500119194 68.8100503,0.788427445 L68.8100503,8.38944535 C68.8100503,8.67847527 68.6177246,8.81703643 68.3286946,8.81703643 C68.0295613,8.81703643 67.8372355,8.67847527 67.8372355,8.38944535 L67.8372355,0.788427445 Z" id="Fill-38"></path>
                    <path d="M71.3470908,5.65791411 C71.3470908,7.016463 71.988297,7.9463383 73.0899304,7.9463383 C74.255071,7.9463383 74.8645236,7.03703067 74.8645236,5.61569626 C74.8645236,4.26869413 74.255071,3.34928309 73.1646235,3.34928309 C72.0099472,3.34928309 71.3470908,4.23657969 71.3470908,5.65791411 M75.8478027,5.62616051 C75.8478027,7.48627194 74.8215841,8.7690452 73.1541593,8.7690452 C71.3896695,8.7690452 70.36309,7.5295723 70.36309,5.62616051 C70.36309,3.77651333 71.4001337,2.52585451 73.1325091,2.52585451 C74.8428734,2.52585451 75.8478027,3.76604908 75.8478027,5.62616051" id="Fill-40"></path>
                    <path d="M85.0588724,5.77049505 C85.0588724,7.1712618 85.6791501,8.07948692 86.7587725,8.07948692 C87.8813344,8.07948692 88.5763052,7.10631126 88.5763052,5.78095931 C88.5763052,4.47689671 87.9347382,3.51454614 86.7587725,3.51454614 C85.6791501,3.51454614 85.0588724,4.41266784 85.0588724,5.77049505 Z M88.5546551,0.788427445 C88.5546551,0.500119194 88.7581668,0.360836359 89.0248248,0.360836359 C89.324319,0.360836359 89.5061805,0.500119194 89.5061805,0.788427445 L89.5061805,8.38944535 C89.5061805,8.67847527 89.3138548,8.81703643 89.0147214,8.81703643 C88.7044022,8.81703643 88.5546551,8.646 88.5546551,8.42192062 L88.5546551,8.19748041 C88.5546551,8.1487675 88.5582634,8.08201277 88.5633151,8.01020634 C88.5705319,7.90736797 88.2612951,8.91337974 86.6198505,8.91337974 C85.0588724,8.91337974 84.0748717,7.6843711 84.0748717,5.75966996 C84.0748717,3.88873344 85.0484082,2.68065331 86.6299539,2.68065331 C88.2612951,2.68065331 88.5705319,3.57516665 88.5625935,3.40376938 C88.5575418,3.30345687 88.5546551,3.20603105 88.5546551,3.11906949 L88.5546551,0.788427445 Z" id="Fill-42"></path>
                    <path d="M106.08589,2.9534456 C106.08589,2.66477651 106.299866,2.52585451 106.57771,2.52585451 C106.866018,2.52585451 107.069529,2.66477651 107.069529,2.9534456 L107.069529,6.37417428 C107.069529,7.28312107 107.432892,7.79623037 108.23467,7.79623037 C108.812369,7.79623037 109.293364,7.53967572 109.656726,7.03703067 C109.923745,6.67366846 109.986531,6.36190585 110.030913,5.94694403 L110.030913,2.9534456 C110.030913,2.66477651 110.234064,2.52585451 110.512269,2.52585451 C110.811403,2.52585451 111.003728,2.66477651 111.003728,2.9534456 L111.003728,8.15995342 C111.003728,8.43779742 110.800217,8.57671942 110.501083,8.57671942 C110.223239,8.57671942 110.030913,8.43779742 110.030913,8.15995342 L110.030913,7.8709235 C109.686676,8.41326055 109.057738,8.69182622 108.041983,8.6618768 C106.818387,8.62651484 106.08589,7.89257368 106.08589,6.57732515 L106.08589,2.9534456 Z" id="Fill-10"></path>
                    <path d="M99.0214353,4.38019256 C100.101419,4.38019256 100.678757,3.80285439 100.678757,2.76581069 C100.678757,1.8041818 100.090593,1.26942231 99.0214353,1.26942231 L96.9689981,1.26942231 C96.7337328,1.26942231 96.6265644,1.40834431 96.6265644,1.64360962 L96.6265644,4.38019256 L99.0214353,4.38019256 Z M96.6265644,8.30392713 C96.6265644,8.60306047 96.4129493,8.75280756 96.1242802,8.75280756 C95.8251469,8.75280756 95.6216352,8.60306047 95.6216352,8.29346288 L95.6216352,1.51551271 C95.6216352,0.692444973 95.9532438,0.360836359 96.7124435,0.360836359 L99.086025,0.360836359 C100.774739,0.360836359 101.726265,1.22648278 101.726265,2.74488218 C101.726265,4.34843896 100.742625,5.27831426 99.0430855,5.27831426 L96.6265644,5.27831426 L96.6265644,8.30392713 Z" id="Fill-44"></path>
                    <path d="M103.199199,0.788427445 C103.199199,0.500119194 103.391524,0.360836359 103.690658,0.360836359 C103.979688,0.360836359 104.172014,0.500119194 104.172014,0.788427445 L104.172014,8.38944535 C104.172014,8.67847527 103.979688,8.81703643 103.690658,8.81703643 C103.391524,8.81703643 103.199199,8.67847527 103.199199,8.38944535 L103.199199,0.788427445 Z" id="Fill-46"></path>
                    <path d="M114.601628,5.89354025 C113.28674,5.6369856 112.741516,5.17728008 112.741516,4.16152573 C112.741516,3.18907174 113.575048,2.52585451 114.954526,2.52585451 C116.140956,2.52585451 116.899794,3.02849956 117.167174,3.80898861 C117.177999,3.85192813 117.188824,3.89414599 117.188824,3.93744635 C117.188824,4.14023638 117.006963,4.27951922 116.814998,4.33256216 C116.760872,4.34338725 116.697365,4.35421235 116.643961,4.35421235 C116.451275,4.35421235 116.258949,4.26869413 116.205545,4.06554326 C116.066262,3.58454839 115.596093,3.33845799 114.98664,3.33845799 C114.120633,3.33845799 113.714692,3.69135595 113.714692,4.14023638 C113.714692,4.63205634 113.917482,4.8460323 114.815604,5.03835808 L115.47846,5.17728008 C116.868041,5.46594917 117.423729,5.87189007 117.423729,6.99481282 C117.423729,8.02103143 116.547618,8.77987029 115.050508,8.77987029 C113.682217,8.77987029 112.880799,8.23464655 112.602594,7.28384274 C112.59213,7.22971729 112.580944,7.1871386 112.580944,7.14419907 C112.580944,6.93058395 112.762806,6.7811977 112.965956,6.73825817 C113.01936,6.72743308 113.073125,6.71660799 113.116064,6.71660799 C113.318494,6.71660799 113.511541,6.80248704 113.575048,7.00563791 C113.767735,7.62591561 114.206151,7.93551321 115.050508,7.93551321 C115.90569,7.93551321 116.4621,7.56096507 116.4621,7.01610217 C116.4621,6.49216777 116.184256,6.20349869 115.210719,6.01081207 L114.601628,5.89354025 Z" id="Fill-48"></path>
                </g>
                <g id="Group-4" transform="translate(58.367347, 0.897959)">
                    <path d="M12.2898801,14.3543711 C12.2898801,14.4575843 12.3346564,14.508432 12.424209,14.508432 L15.3703378,14.508432 C15.4720331,14.508432 15.5236397,14.4575843 15.5236397,14.3543711 L15.5236397,4.17117799 C15.5236397,4.08162539 15.4720331,4.03609016 15.3703378,4.03609016 L12.424209,4.03609016 C12.3346564,4.03609016 12.2898801,4.08162539 12.2898801,4.17117799 L12.2898801,14.3543711 Z M10.5375331,3.40087384 C10.5375331,3.08060945 10.6460587,2.81119273 10.8653866,2.59186475 C11.0831968,2.37405461 11.3526135,2.26477009 11.6736368,2.26477009 L16.2362659,2.26477009 C16.5443876,2.26477009 16.8107686,2.37405461 17.035409,2.59186475 C17.2592905,2.81119273 17.3716107,3.08060945 17.3716107,3.40087384 L17.3716107,16.5871148 C17.3716107,16.8436299 17.2820581,17.06144 17.102194,17.242063 C16.9223299,17.4211682 16.7045198,17.5114798 16.4480047,17.5114798 C16.1907307,17.5114798 15.9729206,17.4211682 15.7938154,17.242063 C15.6131923,17.06144 15.5236397,16.8436299 15.5236397,16.5871148 L15.5236397,16.3951079 C15.5236397,16.3055553 15.4720331,16.2600201 15.3703378,16.2600201 L12.424209,16.2600201 C12.3346564,16.2600201 12.2898801,16.3055553 12.2898801,16.3951079 L12.2898801,16.7988536 C12.2898801,17.042467 12.2026043,17.2481344 12.0303294,17.4150969 C11.8565366,17.5813004 11.6478335,17.6655406 11.4042201,17.6655406 C11.1598477,17.6655406 10.9549392,17.5813004 10.7879768,17.4150969 C10.6210143,17.2481344 10.5375331,17.042467 10.5375331,16.7988536 L10.5375331,3.40087384 Z M4.85853214,3.38190083 C4.85853214,3.47145343 4.90406736,3.51622973 4.99361996,3.51622973 L8.01639968,3.51622973 C8.32376242,3.51622973 8.58710778,3.63158562 8.80567684,3.86305633 C9.02348698,4.06796482 9.13277151,4.32447989 9.13277151,4.63260155 C9.13277151,7.82841512 9.02955834,10.8314629 8.82464985,13.6425039 C8.70929396,15.2719058 8.50969791,16.2987251 8.22813846,16.7222026 C8.03537269,17.0037621 7.83349988,17.2063938 7.62100219,17.32858 C7.41002233,17.4507661 7.14288237,17.5365241 6.82261799,17.5881307 C6.51449633,17.6397373 6.1031615,17.6655406 5.59089027,17.6655406 L5.45580245,17.6655406 C5.19852845,17.6655406 4.96781667,17.5721934 4.76290818,17.3862579 C4.55724076,17.2003224 4.41608158,16.9650571 4.33943063,16.6834977 C4.27416348,16.4778303 4.30376137,16.2865823 4.42594754,16.1059593 C4.54813372,15.9268541 4.71737296,15.8365426 4.93594201,15.8365426 C5.38522286,15.8494442 5.72521917,15.8562745 5.95668987,15.8562745 C6.12289343,15.8562745 6.25494557,15.8365426 6.35056953,15.7978376 C6.44771134,15.7598916 6.54029962,15.670339 6.62985222,15.5284209 C6.83551963,15.2719058 6.98654478,14.4211561 7.08216874,12.9784486 C7.17931055,11.5334642 7.27189883,9.0290271 7.36145143,5.46058365 C7.36145143,5.3581294 7.30984485,5.30652282 7.2073906,5.30652282 L4.93594201,5.30652282 C4.84563049,5.30652282 4.79478283,5.3581294 4.78188118,5.46058365 C4.69232858,8.13046541 4.43884919,10.4337887 4.02220192,12.3713123 C3.60479573,14.3095948 2.90810686,15.9458271 1.93289422,17.2800091 C1.79173504,17.4727748 1.59896927,17.5691577 1.35535584,17.5691577 C1.09808184,17.5691577 0.886343068,17.4788462 0.720139513,17.299741 C0.527373746,17.1327785 0.418089217,16.9210397 0.393044845,16.6645247 L0.393044845,16.5491688 C0.393044845,16.3442603 0.450722791,16.1514945 0.566078683,15.9716304 C1.41303379,14.7907503 2.01030409,13.3434892 2.35637177,11.630606 C2.70319837,9.9169639 2.91493714,7.86028977 2.9915881,5.46058365 C2.9915881,5.3581294 2.94605288,5.30652282 2.8572592,5.30652282 L1.39406078,5.30652282 C1.14968843,5.30652282 0.937949651,5.21924698 0.75884445,5.04697206 C0.578221409,4.8731793 0.489427729,4.66523513 0.489427729,4.42086278 C0.489427729,4.17800827 0.578221409,3.96626949 0.75884445,3.78564645 C0.937949651,3.60654125 1.14968843,3.51622973 1.39406078,3.51622973 L2.89596413,3.51622973 C2.98475781,3.51622973 3.0363644,3.47145343 3.04926604,3.38190083 L3.04926604,1.09072032 C3.04926604,0.847106886 3.13881864,0.635368111 3.31944169,0.455503989 C3.49854689,0.275639868 3.71408026,0.186087268 3.96376506,0.186087268 C4.21420877,0.186087268 4.42898323,0.275639868 4.60884735,0.455503989 C4.78795255,0.635368111 4.87826407,0.847106886 4.87826407,1.09072032 C4.87826407,1.97638036 4.87143379,2.73985422 4.85853214,3.38190083 Z" id="Fill-1"></path>
                    <path d="M44.8134114,9.04116982 C44.6464489,9.04116982 44.5052897,8.98349188 44.3899339,8.86737706 C44.274578,8.75278009 44.2161411,8.61162091 44.2161411,8.44465843 C44.2161411,8.27845488 44.274578,8.13653677 44.3899339,8.02118088 C44.5052897,7.90506607 44.6464489,7.84738812 44.8134114,7.84738812 L48.1632858,7.84738812 C48.3294893,7.84738812 48.4736842,7.90506607 48.5966293,8.02118088 C48.7180566,8.13653677 48.7787702,8.27845488 48.7787702,8.44465843 C48.7787702,8.61162091 48.7180566,8.75278009 48.5966293,8.86737706 C48.4736842,8.98349188 48.3294893,9.04116982 48.1632858,9.04116982 L44.8134114,9.04116982 Z M44.3997998,6.65360643 C44.2776136,6.53900945 44.2161411,6.39481459 44.2161411,6.22026291 C44.2161411,6.04798799 44.2776136,5.90303421 44.3997998,5.78767831 C44.5212271,5.67232242 44.6654219,5.61464448 44.8323844,5.61464448 L47.6623984,5.61464448 C47.8286019,5.61464448 47.9735557,5.67232242 48.0957419,5.78767831 C48.2179281,5.90303421 48.2786417,6.04798799 48.2786417,6.22026291 C48.2786417,6.39481459 48.2179281,6.53900945 48.0957419,6.65360643 C47.9735557,6.76972124 47.8286019,6.82739918 47.6623984,6.82739918 L44.8323844,6.82739918 C44.6654219,6.82739918 44.5212271,6.76972124 44.3997998,6.65360643 Z M45.4486277,14.0849544 C45.4607705,14.0849544 45.4676007,14.0750885 45.4676007,14.0561154 C45.4676007,14.0363835 45.4546991,14.0272765 45.4296547,14.0272765 L40.7516697,14.0272765 C40.6613582,14.0272765 40.5907786,14.0659814 40.539931,14.1426324 C40.1665421,14.6943675 39.7567252,15.2468615 39.3074443,15.7978376 C39.281641,15.8107393 39.2755697,15.8304712 39.2884713,15.8555156 C39.300614,15.8820778 39.320346,15.8942205 39.3461493,15.8942205 C42.6186138,15.8304712 44.8194828,15.7856949 45.9495152,15.7598916 C45.9745595,15.7598916 45.9904969,15.7500256 45.9973271,15.7302937 C46.0033985,15.7120796 45.9935325,15.6961423 45.9684882,15.6824817 C45.788624,15.5284209 45.589028,15.3743601 45.3712179,15.2210582 C45.179211,15.0928006 45.0828281,14.9121776 45.0828281,14.6814658 C45.0828281,14.3999064 45.2042554,14.2003103 45.4486277,14.0849544 Z M40.0200705,5.61464448 C40.1862741,5.61464448 40.3312279,5.67232242 40.4526551,5.78767831 C40.5756002,5.90303421 40.6363138,6.04798799 40.6363138,6.22026291 C40.6363138,6.39481459 40.5756002,6.53900945 40.4526551,6.65360643 C40.3312279,6.76972124 40.1862741,6.82739918 40.0200705,6.82739918 L37.2477345,6.82739918 C37.0678704,6.82739918 36.9206398,6.76972124 36.8052839,6.65360643 C36.6891691,6.53900945 36.6314912,6.39481459 36.6314912,6.22026291 C36.6314912,6.04798799 36.6891691,5.90303421 36.8052839,5.78767831 C36.9206398,5.67232242 37.0678704,5.61464448 37.2477345,5.61464448 L40.0200705,5.61464448 Z M36.824257,9.04116982 C36.6572945,9.04116982 36.5130996,8.98349188 36.3916724,8.86737706 C36.2694862,8.75278009 36.2087726,8.61162091 36.2087726,8.44465843 C36.2087726,8.27845488 36.2694862,8.13653677 36.3916724,8.02118088 C36.5130996,7.90506607 36.6572945,7.84738812 36.824257,7.84738812 L40.0390435,7.84738812 C40.1931044,7.84738812 40.3312279,7.90506607 40.4526551,8.02118088 C40.5756002,8.13653677 40.6363138,8.27845488 40.6363138,8.44465843 C40.6363138,8.61162091 40.5756002,8.75278009 40.4526551,8.86737706 C40.3312279,8.98349188 40.1931044,9.04116982 40.0390435,9.04116982 L36.824257,9.04116982 Z M36.6512231,11.4666792 C36.4706001,11.4666792 36.3142625,11.3998942 36.1791747,11.2640475 C36.0448458,11.1297186 35.9773019,10.9695864 35.9773019,10.7836509 C35.9773019,10.5977154 36.0448458,10.4368243 36.1791747,10.3017365 C36.3142625,10.1674076 36.4706001,10.0998637 36.6512231,10.0998637 L48.3363196,10.0998637 C48.5154248,10.0998637 48.6732803,10.1674076 48.8076092,10.3017365 C48.942697,10.4368243 49.0102409,10.5977154 49.0102409,10.7836509 C49.0102409,10.9695864 48.942697,11.1297186 48.8076092,11.2640475 C48.6732803,11.3998942 48.5154248,11.4666792 48.3363196,11.4666792 L36.6512231,11.4666792 Z M35.861946,4.61362855 C35.7716344,4.61362855 35.7268581,4.65916377 35.7268581,4.74795745 L35.7268581,6.71204329 C35.7268581,6.93061235 35.6471715,7.1188246 35.4855215,7.28047463 C35.3261482,7.44060682 35.1333824,7.52029346 34.908742,7.52029346 C34.6841016,7.52029346 34.4920947,7.44060682 34.3312036,7.28047463 C34.1710714,7.1188246 34.0906259,6.93061235 34.0906259,6.71204329 L34.0906259,4.36318483 C34.0906259,4.04292045 34.1991515,3.77350373 34.4177206,3.55493467 C34.6355307,3.33636561 34.9057063,3.22708108 35.2267296,3.22708108 L41.3671541,3.22708108 C41.4696084,3.22708108 41.5219739,3.17623342 41.5219739,3.07377917 L41.5219739,2.22682407 C41.5219739,2.13727147 41.4696084,2.09173625 41.3671541,2.09173625 L35.9773019,2.09173625 C35.7716344,2.09173625 35.5986006,2.02115666 35.4574414,1.87999747 C35.3155233,1.73883829 35.2457026,1.56884013 35.2457026,1.36924408 C35.2457026,1.17040695 35.3155233,1.00116772 35.4574414,0.860008532 C35.5986006,0.718849348 35.7716344,0.647510836 35.9773019,0.647510836 L48.9525629,0.647510836 C49.1574714,0.647510836 49.3305053,0.718849348 49.4724234,0.860008532 C49.6128236,1.00116772 49.6834032,1.17040695 49.6834032,1.36924408 C49.6834032,1.56884013 49.6128236,1.73883829 49.4724234,1.87999747 C49.3305053,2.02115666 49.1574714,2.09173625 48.9525629,2.09173625 L43.4655689,2.09173625 C43.3623557,2.09173625 43.311508,2.13727147 43.311508,2.22682407 L43.311508,3.07377917 C43.311508,3.17623342 43.3623557,3.22708108 43.4655689,3.22708108 L49.7608131,3.22708108 C50.0810775,3.22708108 50.3504942,3.33636561 50.5690633,3.55493467 C50.7876323,3.77350373 50.8969169,4.04292045 50.8969169,4.36318483 L50.8969169,6.67333835 C50.8969169,6.90480906 50.8126767,7.10364619 50.6464732,7.27060866 C50.4795107,7.43757114 50.2806735,7.52029346 50.0492028,7.52029346 C49.8184911,7.52029346 49.618895,7.43757114 49.4526915,7.27060866 C49.285729,7.10364619 49.2022477,6.90480906 49.2022477,6.67333835 L49.2022477,4.74795745 C49.2022477,4.65916377 49.1574714,4.61362855 49.0679188,4.61362855 L43.4655689,4.61362855 C43.3623557,4.61362855 43.311508,4.65916377 43.311508,4.74795745 L43.311508,8.52130939 C43.311508,8.76568174 43.2249911,8.97438483 43.0527162,9.14665975 C42.8781645,9.32045251 42.6671847,9.40696943 42.415982,9.40696943 C42.1670562,9.40696943 41.9537996,9.32045251 41.7815246,9.14665975 C41.6077319,8.97438483 41.5219739,8.76568174 41.5219739,8.52130939 L41.5219739,4.74795745 C41.5219739,4.65916377 41.4696084,4.61362855 41.3671541,4.61362855 L35.861946,4.61362855 Z M50.5690633,12.621756 C50.761829,12.621756 50.9280326,12.6930945 51.0699507,12.8334948 C51.2111099,12.9754129 51.2816895,13.1416164 51.2816895,13.3343822 C51.2816895,13.526389 51.2111099,13.6895569 51.0699507,13.8254037 C50.9280326,13.9589736 50.761829,14.0272765 50.5690633,14.0272765 L46.4496437,14.0272765 C46.4238404,14.0272765 46.4109387,14.0363835 46.4109387,14.0561154 C46.4109387,14.0750885 46.4170101,14.0917847 46.4306707,14.1039274 C47.7390493,14.9645431 48.8561801,15.8107393 49.7797861,16.6455517 C49.9080437,16.7730503 49.9725519,16.9271111 49.9725519,17.1069752 L49.9725519,17.2223311 C49.933847,17.4538018 49.8116608,17.6200054 49.6067523,17.7232185 C49.4268882,17.8006284 49.2409527,17.8385744 49.0489458,17.8385744 C48.971536,17.8385744 48.8941261,17.8317441 48.8174751,17.8196014 C48.5351568,17.7679948 48.2907844,17.6458087 48.0858759,17.4538018 C48.0342693,17.4021952 47.97052,17.3384459 47.8938691,17.2610361 C47.8164592,17.1965278 47.732219,17.1646532 47.6434254,17.1646532 C44.9735436,17.2800091 41.0210865,17.4150969 35.785295,17.5691577 L35.7655631,17.5691577 C35.546994,17.5691577 35.3542283,17.4985781 35.1880247,17.3574189 C35.0081606,17.2033581 34.9117777,17.0105923 34.899635,16.7798806 C34.8859744,16.6379624 34.908742,16.5074282 34.9671789,16.385242 C35.0240979,16.2630558 35.1144094,16.1636372 35.2365956,16.0869863 C35.3587818,16.0103353 35.4893161,15.9716304 35.6304753,15.9716304 L37.0747007,15.9329255 C37.1771549,15.9329255 37.2538059,15.8942205 37.3054125,15.8175696 C37.6643818,15.2916378 38.0043781,14.7391438 38.3261603,14.1616054 C38.3512047,14.1236594 38.3549993,14.0917847 38.3352674,14.0659814 C38.3162944,14.0401781 38.2935267,14.0272765 38.2677234,14.0272765 L34.4177206,14.0272765 C34.2257137,14.0272765 34.0587512,13.9589736 33.917592,13.8254037 C33.7756739,13.6895569 33.7058533,13.526389 33.7058533,13.3343822 C33.7058533,13.1416164 33.7756739,12.9754129 33.917592,12.8334948 C34.0587512,12.6930945 34.2257137,12.621756 34.4177206,12.621756 L50.5690633,12.621756 Z" id="Fill-3"></path>
                    <path d="M82.5734171,13.0644342 C82.6622108,13.0644342 82.707746,13.0135866 82.707746,12.9103734 L82.707746,10.7353077 C82.707746,10.5303992 82.7783256,10.3604011 82.9194848,10.2245543 C83.060644,10.0909843 83.2276065,10.0226815 83.4196133,10.0226815 C83.6123791,10.0226815 83.7763059,10.0909843 83.9106348,10.2245543 C84.0457226,10.3604011 84.1125076,10.5303992 84.1125076,10.7353077 L84.1125076,14.4122768 C84.1125076,14.6042836 84.0457226,14.7682104 83.9106348,14.9032982 C83.7763059,15.0376271 83.6123791,15.105171 83.4196133,15.105171 L83.4006403,15.105171 C83.2086335,15.105171 83.0447067,15.0406628 82.9096189,14.9124053 C82.7760489,14.7849066 82.707746,14.6240155 82.707746,14.4312498 C82.707746,14.3675005 82.6819428,14.3348669 82.6303362,14.3348669 L81.2832526,14.3348669 C81.1937,14.3348669 81.1481647,14.3864735 81.1481647,14.4889277 L81.1481647,17.2415318 C81.1481647,17.4464403 81.0745495,17.6240276 80.9273189,17.7712582 C80.7800884,17.9184887 80.602501,17.9928629 80.3975925,17.9928629 C80.1919251,17.9928629 80.0158556,17.9184887 79.868625,17.7712582 C79.7206356,17.6240276 79.6470203,17.4464403 79.6470203,17.2415318 L79.6470203,10.1000914 C79.6470203,9.89518288 79.7206356,9.71759552 79.868625,9.57036498 C80.0158556,9.42313443 80.1919251,9.34876024 80.3975925,9.34876024 C80.602501,9.34876024 80.7800884,9.42313443 80.9273189,9.57036498 C81.0745495,9.71759552 81.1481647,9.89518288 81.1481647,10.1000914 L81.1481647,12.9103734 C81.1481647,13.0135866 81.1937,13.0644342 81.2832526,13.0644342 L82.5734171,13.0644342 Z M84.7871878,8.36747623 C84.7993305,8.43198446 84.8061608,8.49573377 84.8061608,8.55948308 C84.8061608,8.67559789 84.7795986,8.78488242 84.7295098,8.88733667 C84.6391983,9.0413975 84.5041105,9.15675339 84.3250053,9.23340434 C84.1701855,9.28576985 84.0199193,9.27210928 83.8719298,9.19545833 C83.7254582,9.11804845 83.6252807,8.9966212 83.5736742,8.82965872 C83.5615314,8.77881106 83.5478709,8.72720448 83.5357281,8.67559789 C83.5091659,8.59818802 83.4651485,8.56707228 83.4006403,8.57921501 C82.527123,8.66876761 81.3986085,8.78488242 80.0128199,8.92528269 C79.8200541,8.93894325 79.6470203,8.88733667 79.4929595,8.77198078 C79.3388986,8.65586596 79.2485871,8.50180513 79.2235428,8.30979829 C79.2098822,8.27109335 79.2045697,8.23238841 79.2045697,8.1944424 C79.2045697,8.06618486 79.2485871,7.94399868 79.3388986,7.82864279 C79.4550135,7.68748361 79.6014851,7.61007373 79.7813492,7.59717209 L79.897464,7.59717209 C79.9612133,7.58502936 80.0128199,7.55239579 80.0515248,7.5007892 C80.4362975,6.93691139 80.7884365,6.37227465 81.1094598,5.806879 C81.1610664,5.73022804 81.154995,5.65281817 81.0904868,5.57616722 C80.6920536,5.02443213 80.1668807,4.45296511 79.5126914,3.86252508 C79.3700144,3.73502646 79.2872921,3.57717103 79.2622477,3.39123555 C79.2364444,3.20530007 79.2743904,3.02847163 79.3776036,2.86150915 L79.4352815,2.7848582 C79.5240752,2.65735958 79.6470203,2.5799497 79.8010811,2.55338749 C79.955142,2.52834312 80.0902298,2.56628914 80.2055857,2.6695023 C80.2556744,2.6953056 80.288308,2.68847531 80.3019686,2.64977038 C80.6222329,2.02138433 80.917453,1.36036471 81.1868697,0.667470441 C81.2635206,0.462561949 81.4046798,0.308501119 81.6103472,0.205287953 C81.726462,0.15444029 81.8478893,0.128636998 81.9761468,0.128636998 C82.0527978,0.128636998 82.136279,0.141538644 82.2265905,0.166583015 C82.4193563,0.231091244 82.5544441,0.359348782 82.6303362,0.551355629 C82.707746,0.744121396 82.6948444,0.9308158 82.5916312,1.109921 C81.9632452,2.25285504 81.5200357,3.02847163 81.2635206,3.43904753 C81.212673,3.51645741 81.2187443,3.59310836 81.2832526,3.67051824 C81.5010627,3.88908729 81.6801679,4.08185306 81.8228449,4.24805662 C81.8342287,4.27385991 81.8607909,4.28676155 81.898737,4.28676155 C81.9374419,4.28676155 81.9632452,4.27385991 81.9761468,4.24805662 C82.193957,3.81167742 82.3996244,3.39427123 82.5916312,2.99659697 C82.6819428,2.8038312 82.8299322,2.66267202 83.0348407,2.57311942 C83.137295,2.53441448 83.2397492,2.51544147 83.3437213,2.51544147 C83.4454166,2.51544147 83.5417995,2.53441448 83.632111,2.57311942 C83.8241179,2.63762765 83.9516165,2.76209059 84.0168836,2.94802607 C84.0806329,3.13472047 84.0616599,3.31762028 83.9592057,3.4974844 C82.9832341,5.15268966 82.1689126,6.44209533 81.5139643,7.3664603 C81.5010627,7.39226359 81.5010627,7.41806689 81.5139643,7.44311126 C81.526866,7.46967347 81.545839,7.48181619 81.5724012,7.48181619 L82.9194848,7.3664603 C83.0090374,7.3664603 83.0348407,7.32775537 82.9968947,7.25110441 C82.9323865,7.09704358 82.8678782,6.9558844 82.8041289,6.82762686 C82.7396207,6.68646768 82.7373439,6.54530849 82.794263,6.40414931 C82.8526998,6.26299013 82.9513595,6.16660724 83.0932776,6.11500066 C83.2587222,6.064153 83.4264436,6.06642976 83.5934061,6.12486662 C83.7596096,6.18178565 83.8825547,6.2880345 83.9592057,6.44209533 C84.3310767,7.13574852 84.6065647,7.77779513 84.7871878,8.36747623 Z M76.8359794,12.6219837 L76.8359794,10.1190644 C76.8359794,9.91415589 76.9103535,9.73732745 77.0568252,9.59009691 C77.2055736,9.44286636 77.3816431,9.36849217 77.5873105,9.36849217 C77.7914601,9.36849217 77.9652528,9.44286636 78.106412,9.59009691 C78.2483301,9.73732745 78.3189097,9.91415589 78.3189097,10.1190644 L78.3189097,12.6409567 C78.3189097,13.2063523 78.2893118,13.6966149 78.2323928,14.1132621 C78.1739559,14.5306683 78.0654303,14.9670475 77.9045392,15.4223997 C77.744407,15.8785109 77.4977579,16.2951581 77.1638329,16.6746183 C76.829908,17.0525606 76.4056715,17.3963515 75.8926414,17.7037143 C75.7006345,17.8061685 75.5017974,17.8319718 75.29613,17.7811242 C75.0912215,17.7295176 74.9174287,17.6141617 74.7770285,17.4342976 C74.6609137,17.2802367 74.6222087,17.1072029 74.6609137,16.9144371 C74.6996186,16.7224303 74.7960015,16.5805122 74.9500623,16.4909596 C75.7841158,15.9650278 76.3358508,15.2971779 76.6052676,14.4889277 C76.6174103,14.4509817 76.6120979,14.4153124 76.5855356,14.3826789 C76.5597324,14.3515631 76.534688,14.3348669 76.5096436,14.3348669 L75.4501908,14.3348669 C75.3985842,14.3348669 75.3735399,14.3675005 75.3735399,14.4312498 L75.3735399,14.4699547 C75.3735399,14.6619616 75.3067549,14.8228527 75.1709081,14.9511102 C75.0365792,15.0793677 74.8756881,15.143876 74.6897526,15.143876 C74.5038171,15.143876 74.343685,15.0793677 74.2085971,14.9511102 C74.0742682,14.8228527 74.0067243,14.6619616 74.0067243,14.4699547 L74.0067243,10.7163347 C74.0067243,10.5235689 74.0742682,10.3604011 74.2085971,10.2245543 C74.343685,10.0909843 74.5038171,10.0226815 74.6897526,10.0226815 C74.8756881,10.0226815 75.0365792,10.0909843 75.1709081,10.2245543 C75.3067549,10.3604011 75.3735399,10.5235689 75.3735399,10.7163347 L75.3735399,12.9103734 C75.3735399,13.0135866 75.4175572,13.0644342 75.5078688,13.0644342 L76.7016505,13.0644342 C76.7912031,13.0644342 76.8359794,13.0135866 76.8359794,12.9103734 L76.8359794,12.6219837 Z M77.2981618,6.80789493 C77.2336536,6.68039631 77.2313769,6.54530849 77.2882959,6.40414931 C77.3467327,6.26299013 77.4453924,6.1726786 77.5873105,6.13473259 C77.753514,6.083126 77.9144052,6.08995629 78.0677071,6.1537056 C78.2225268,6.21821382 78.3378827,6.32066807 78.4152926,6.46182725 C78.7234142,7.05226728 78.9533671,7.63587702 79.1081869,8.2134154 C79.1590345,8.38037788 79.1400615,8.53747439 79.04975,8.68470494 C78.9601974,8.8326944 78.8311809,8.93894325 78.6657363,9.00269256 L78.5883264,9.02166557 C78.45931,9.07327215 78.334847,9.06340619 78.2126609,8.9928266 C78.0912336,8.922247 78.0168594,8.81675708 77.991815,8.67559789 C77.9781545,8.62475023 77.9455209,8.60577722 77.8954322,8.61791995 C76.9961115,8.70747255 75.7841158,8.82358736 74.257168,8.96398762 C74.0644023,8.97688927 73.8936452,8.92528269 73.7464146,8.81068571 C73.5991841,8.6945709 73.5126672,8.54734036 73.4868639,8.36747623 L73.4868639,8.25212034 C73.4868639,8.1238628 73.5316402,8.00167663 73.6211928,7.88632074 C73.7365487,7.74516155 73.8845381,7.6685106 74.0644023,7.65560895 L74.3914969,7.63587702 C74.4810495,7.6237343 74.5455578,7.58502936 74.5842627,7.52052113 C74.981178,6.96878604 75.3409063,6.39731903 75.6626885,5.806879 C75.7127772,5.73022804 75.7127772,5.65281817 75.6626885,5.57616722 C75.277157,5.05023542 74.7770285,4.49774141 74.1607851,3.92020303 C74.018867,3.77980276 73.9422161,3.61587597 73.9293144,3.42994049 C73.9164128,3.244005 73.9611891,3.08007821 74.0644023,2.93891903 L74.1797582,2.7848582 C74.257168,2.68240395 74.362658,2.624726 74.4977458,2.61182436 C74.6313158,2.59892271 74.7497073,2.63079737 74.8536794,2.70820724 C74.8787238,2.73401053 74.8984557,2.73401053 74.9113574,2.70820724 C75.2452823,2.04111626 75.5389845,1.36036471 75.7962585,0.667470441 C75.8736684,0.462561949 76.0087562,0.308501119 76.2015219,0.205287953 C76.3282616,0.141538644 76.4519657,0.108905069 76.5665626,0.108905069 C76.6439725,0.108905069 76.7274537,0.121806715 76.8170063,0.146851086 C77.0097721,0.212118236 77.1448599,0.339616853 77.2215109,0.53238262 C77.2981618,0.725148387 77.2852602,0.911083871 77.182806,1.09094799 C76.5665626,2.20731982 76.1104515,2.99052561 75.8159904,3.43904753 C75.7643838,3.51645741 75.7704552,3.59310836 75.8349634,3.67051824 C76.0664341,3.88908729 76.2455393,4.0871655 76.3745558,4.26702962 C76.3996002,4.29283292 76.4284391,4.30497564 76.4610727,4.30497564 C76.4929474,4.30497564 76.515715,4.29283292 76.5286166,4.26702962 C76.7843728,3.76690112 76.9907991,3.35025385 77.1448599,3.01556998 C77.2336536,2.82280421 77.3748128,2.68847531 77.5675786,2.61182436 C77.7603443,2.53441448 77.9531101,2.52834312 78.1451169,2.59209243 C78.3242221,2.65735958 78.4471672,2.78182251 78.5109166,2.967758 C78.5746659,3.15369348 78.5617642,3.33052192 78.4729705,3.4974844 C77.534945,5.101842 76.7137932,6.40414931 76.0087562,7.40440632 C75.982194,7.43096853 75.9768815,7.45677182 75.9890243,7.48181619 C76.0019259,7.50837841 76.0277292,7.52052113 76.0664341,7.52052113 L77.4135177,7.40440632 C77.5030703,7.40440632 77.534945,7.36038894 77.5099006,7.27007742 C77.4453924,7.11601659 77.3748128,6.96195576 77.2981618,6.80789493 Z M69.3674443,12.9688103 C69.3674443,13.0712645 69.4182919,13.1160408 69.5215051,13.1031392 L71.1577374,12.7950175 C71.2601916,12.7828748 71.3110393,12.7251968 71.3110393,12.6219837 L71.3110393,10.484864 C71.3110393,10.3953114 71.2601916,10.3505351 71.1577374,10.3505351 L69.5215051,10.3505351 C69.4182919,10.3505351 69.3674443,10.3953114 69.3674443,10.484864 L69.3674443,12.9688103 Z M69.5215051,6.32673943 C69.4182919,6.32673943 69.3674443,6.37227465 69.3674443,6.46182725 L69.3674443,8.67559789 C69.3674443,8.77881106 69.4182919,8.82965872 69.5215051,8.82965872 L71.1577374,8.82965872 C71.2601916,8.82965872 71.3110393,8.77881106 71.3110393,8.67559789 L71.3110393,6.46182725 C71.3110393,6.37227465 71.2601916,6.32673943 71.1577374,6.32673943 L69.5215051,6.32673943 Z M71.1577374,4.825595 C71.2601916,4.825595 71.3110393,4.77474733 71.3110393,4.67153417 L71.3110393,2.47673654 C71.3110393,2.38718394 71.2601916,2.34240764 71.1577374,2.34240764 L69.5215051,2.34240764 C69.4182919,2.34240764 69.3674443,2.38718394 69.3674443,2.47673654 L69.3674443,4.67153417 C69.3674443,4.77474733 69.4182919,4.825595 69.5215051,4.825595 L71.1577374,4.825595 Z M73.6507907,0.945994207 C73.8109229,1.10688532 73.8913684,1.29965109 73.8913684,1.52353259 C73.8913684,1.74817301 73.8109229,1.94093878 73.6507907,2.10107097 C73.4898996,2.26196208 73.2940981,2.34240764 73.0633863,2.34240764 L72.9859765,2.34240764 C72.8964239,2.34240764 72.8508886,2.38035365 72.8508886,2.45700461 L72.8508886,17.2035858 C72.8508886,17.4213959 72.7780323,17.6073314 72.6292839,17.7613922 C72.4828123,17.916212 72.2991535,17.9928629 72.0813434,17.9928629 C71.8627744,17.9928629 71.6798745,17.916212 71.5334029,17.7613922 C71.3854135,17.6073314 71.3110393,17.4213959 71.3110393,17.2035858 L71.3110393,14.5466057 C71.3110393,14.4570531 71.2601916,14.419107 71.1577374,14.4312498 C69.617888,14.7393714 68.4817842,14.9700832 67.750185,15.124144 C67.6856768,15.1370457 67.6279988,15.143876 67.5763923,15.143876 C67.4101887,15.143876 67.255369,15.0930283 67.1149687,14.9898151 C66.9093013,14.8615576 66.7871151,14.6816935 66.7484102,14.4509817 C66.7362674,14.3864735 66.7294372,14.3287955 66.7294372,14.2771889 C66.7294372,14.1109854 66.7802848,13.9569246 66.883498,13.8150065 C67.0246572,13.6229996 67.2113516,13.5068848 67.4428223,13.4689388 C67.531616,13.4567961 67.6150972,13.4438944 67.6925071,13.4302338 C67.7820597,13.4051895 67.826836,13.3475115 67.826836,13.2572 L67.826836,2.4380316 C67.826836,2.37428229 67.7942024,2.34240764 67.7304531,2.34240764 L67.6925071,2.34240764 C67.4610364,2.34240764 67.2659938,2.26196208 67.1051027,2.10107097 C66.9442116,1.94093878 66.864525,1.74817301 66.864525,1.52353259 C66.864525,1.29965109 66.9442116,1.10688532 67.1051027,0.945994207 C67.2659938,0.785862014 67.4610364,0.705416458 67.6925071,0.705416458 L73.0633863,0.705416458 C73.2940981,0.705416458 73.4898996,0.785862014 73.6507907,0.945994207 Z" id="Fill-5"></path>
                    <path d="M112.094204,13.5650181 L113.942934,13.5650181 L114.26927,13.5650181 C114.474937,13.5650181 114.651766,13.6257317 114.798996,13.7486768 C114.946227,13.8701041 115.025913,14.0211292 115.039574,14.2002344 C115.064618,14.4188035 115.017565,14.6077746 114.89462,14.7679068 C114.773193,14.9287979 114.616096,15.0160738 114.423331,15.0282165 L113.961907,15.0282165 L112.094204,15.0282165 C111.310998,15.0282165 110.791138,14.880986 110.534623,14.585007 C110.277349,14.2905459 110.14985,13.7388108 110.14985,12.9298018 L110.14985,10.6773262 C110.14985,10.6264785 110.123288,10.6006752 110.073199,10.6006752 C109.893335,10.6006752 109.74231,10.536167 109.620124,10.4079095 C109.498697,10.2796519 109.437983,10.12635 109.437983,9.94572698 L109.437983,9.88804903 C109.437983,9.69528327 109.504768,9.52907971 109.640615,9.38792053 C109.774185,9.24676134 109.938111,9.17618175 110.130877,9.17618175 L111.382337,9.17618175 C111.47189,9.17618175 111.516666,9.13140545 111.516666,9.04109393 L111.516666,7.50124456 C111.516666,7.41169196 111.47189,7.36615673 111.382337,7.36615673 L110.208287,7.36615673 C110.015521,7.36615673 109.850836,7.29861282 109.717266,7.16428392 C109.581419,7.0291961 109.514634,6.86602823 109.514634,6.67326246 C109.514634,6.48125562 109.581419,6.31429314 109.717266,6.17313396 C109.850836,6.03197477 110.015521,5.96063626 110.208287,5.96063626 L110.322884,5.96063626 C110.400294,5.96063626 110.432169,5.92952053 110.419267,5.8650123 C110.341857,5.28747392 110.169582,4.65908787 109.899407,3.97833633 C109.8478,3.8242755 109.85463,3.67325035 109.919138,3.52526088 C109.982888,3.37878926 110.092172,3.27937069 110.245474,3.22700519 C110.400294,3.16325588 110.55739,3.16629156 110.718282,3.23763007 C110.877655,3.30745074 110.989975,3.41977095 111.054483,3.57383178 C111.221446,3.9586044 111.362605,4.36310894 111.477961,4.78658649 C111.503764,4.87689801 111.516666,4.96037925 111.516666,5.0370302 C111.516666,5.19109103 111.477961,5.3390805 111.40131,5.47948076 C111.285954,5.69880874 111.105331,5.84528037 110.862476,5.92269024 C110.862476,5.94849354 110.868548,5.96063626 110.881449,5.96063626 L113.479993,5.96063626 C113.492894,5.94849354 113.492894,5.94166325 113.479993,5.94166325 C113.300129,5.8650123 113.17263,5.73979044 113.09522,5.56599768 C113.018569,5.39372276 113.01098,5.21006404 113.076247,5.0180572 C113.230308,4.59457964 113.38361,4.13239716 113.537671,3.63150973 C113.589277,3.43950288 113.704633,3.29227234 113.884497,3.18905917 C114.064361,3.08660492 114.250297,3.066873 114.443063,3.13138122 C114.635828,3.18298781 114.770157,3.2983437 114.846808,3.4774489 C114.924218,3.65807194 114.924218,3.83717714 114.846808,4.01628234 C114.7823,4.17110209 114.654801,4.4625275 114.462036,4.89283534 C114.26927,5.32238425 114.122039,5.6411308 114.019585,5.84528037 C114.006683,5.87184258 114.00896,5.89688695 114.029451,5.92269024 C114.047665,5.94849354 114.070433,5.96063626 114.096236,5.96063626 L114.519714,5.96063626 C114.712479,5.96063626 114.878683,6.03197477 115.019842,6.17313396 C115.161001,6.31429314 115.23234,6.48125562 115.23234,6.67326246 C115.23234,6.86602823 115.161001,7.0291961 115.019842,7.16428392 C114.878683,7.29861282 114.712479,7.36615673 114.519714,7.36615673 L113.230308,7.36615673 C113.139996,7.36615673 113.09522,7.41169196 113.09522,7.50124456 L113.09522,9.04109393 C113.09522,9.13140545 113.139996,9.17618175 113.230308,9.17618175 L114.577392,9.17618175 C114.770157,9.17618175 114.936361,9.24676134 115.078279,9.38792053 C115.218679,9.52907971 115.290018,9.69528327 115.290018,9.88804903 C115.290018,10.0808148 115.218679,10.2477773 115.078279,10.3881775 C114.936361,10.5300956 114.770157,10.6006752 114.577392,10.6006752 L111.84376,10.6006752 C111.740547,10.6006752 111.690459,10.6454515 111.690459,10.7350041 L111.690459,12.9298018 C111.690459,13.1734152 111.719298,13.3411366 111.776217,13.4299303 C111.834653,13.5202418 111.940143,13.5650181 112.094204,13.5650181 Z M100.678524,11.9477588 C100.703569,11.7436093 100.799952,11.5789236 100.967673,11.4567374 C101.133877,11.3353101 101.320571,11.2874981 101.525479,11.3125425 C101.74329,11.3512475 101.917082,11.4567374 102.04534,11.6305301 C102.173597,11.803564 102.218374,11.9932941 102.180428,12.1982026 C101.948957,13.6492582 101.660567,14.8354507 101.313741,15.7598157 C101.236331,15.9525815 101.102761,16.080839 100.909995,16.1445883 C100.717229,16.2090966 100.531294,16.1961949 100.35143,16.1058834 C100.170807,16.0163308 100.043308,15.8751716 99.9666571,15.6824058 C99.8892472,15.490399 99.8892472,15.3044635 99.9666571,15.1245994 C100.274779,14.2647426 100.511562,13.2060488 100.678524,11.9477588 Z M116.386658,0.802254694 C116.707681,0.802254694 116.977098,0.914574905 117.195667,1.13845641 C117.413477,1.36309683 117.522761,1.62947787 117.522761,1.93759953 L117.522761,16.0869104 C117.522761,16.5490929 117.468119,16.9012319 117.358835,17.1456043 C117.250309,17.3892177 117.053749,17.5812245 116.772189,17.7231426 C116.412461,17.8893462 115.783316,17.9796577 114.885513,17.9925594 L114.846808,17.9925594 C114.628239,17.9925594 114.423331,17.9219798 114.230565,17.7808206 C114.050701,17.6267598 113.923202,17.4347529 113.846551,17.2032822 C113.781284,17.0234181 113.800257,16.8534199 113.904229,16.6932877 C114.006683,16.5323966 114.153914,16.45271 114.34668,16.45271 L114.846808,16.45271 L115.261179,16.45271 L115.521488,16.45271 C115.648987,16.4405673 115.739299,16.4079337 115.790146,16.3563271 C115.840994,16.3054794 115.867556,16.2151679 115.867556,16.0869104 L115.867556,2.55384284 C115.867556,2.46429024 115.822021,2.41875502 115.732468,2.41875502 L109.033478,2.41875502 C108.943926,2.41875502 108.898391,2.46429024 108.898391,2.55384284 L108.898391,17.2032822 C108.898391,17.4347529 108.818704,17.6297954 108.657813,17.7906866 C108.497681,17.9508187 108.301879,18.0312643 108.070409,18.0312643 C107.840456,18.0312643 107.644654,17.9508187 107.484522,17.7906866 C107.323631,17.6297954 107.242426,17.4347529 107.242426,17.2032822 L107.242426,14.7777728 C107.242426,14.7390679 107.227248,14.7109878 107.194614,14.690497 C107.16274,14.6722829 107.133901,14.6692472 107.108856,14.6813899 L106.954796,14.7200949 C106.851582,14.7587998 106.7552,14.7777728 106.665647,14.7777728 C106.485024,14.7777728 106.31199,14.7200949 106.145787,14.604739 C105.902173,14.4506781 105.748112,14.2267966 105.684363,13.9308177 C105.555347,13.3532793 105.388384,12.7696696 105.183476,12.1792295 C105.118967,11.9993654 105.128074,11.8263316 105.213073,11.6593691 C105.295796,11.4931656 105.420259,11.3831221 105.58798,11.3322744 C105.779987,11.2677662 105.965922,11.2814268 106.145787,11.3702205 C106.324892,11.460532 106.447078,11.5956198 106.511586,11.774725 C106.831851,12.6482423 107.070152,13.4686352 107.223453,14.2389394 C107.223453,14.251841 107.227248,14.2579124 107.233319,14.2579124 C107.24015,14.2579124 107.242426,14.251841 107.242426,14.2389394 L107.242426,10.5429973 C107.242426,10.5042924 107.230284,10.479248 107.205239,10.4655874 C107.177918,10.4534447 107.146802,10.4534447 107.108856,10.4655874 C106.992742,10.517194 106.870555,10.5429973 106.742298,10.5429973 C106.61404,10.5429973 106.485024,10.517194 106.357525,10.4655874 C106.10101,10.3380888 105.927217,10.1384927 105.837665,9.86907602 L105.817933,9.84934409 C105.79213,9.76055041 105.734452,9.71501519 105.645658,9.71501519 L104.62491,9.79166615 C104.534599,9.80456779 104.489822,9.8569333 104.489822,9.94572698 L104.489822,17.1843092 C104.489822,17.4021193 104.410136,17.5918494 104.250004,17.7527405 C104.089112,17.9128727 103.896347,17.9925594 103.672465,17.9925594 C103.447066,17.9925594 103.258095,17.9128727 103.104034,17.7527405 C102.949973,17.5918494 102.873322,17.4021193 102.873322,17.1843092 L102.873322,10.0808148 C102.873322,9.97836055 102.821715,9.92675397 102.718502,9.92675397 C102.449844,9.95255726 102.086322,9.97836055 101.631728,10.0034049 C101.175617,10.0299671 100.883433,10.0489401 100.755934,10.0610829 L100.697497,10.0610829 C100.492589,10.0610829 100.313484,9.99733356 100.158664,9.86907602 C99.9529966,9.68997082 99.8505423,9.47140176 99.8505423,9.21488669 C99.8505423,9.03502257 99.9082203,8.87489038 100.024335,8.73297227 C100.164735,8.56676872 100.344599,8.4764572 100.563169,8.46355555 L101.006378,8.44458254 C101.095172,8.4316809 101.171823,8.3869046 101.236331,8.30949472 C101.596059,7.84731223 101.892038,7.45039689 102.121991,7.11571302 C102.18574,7.02691934 102.19257,6.94267918 102.141723,6.86602823 C101.718245,6.24978491 101.140707,5.55081928 100.409108,4.76761348 C100.242145,4.58774936 100.158664,4.37676951 100.158664,4.13239716 C100.158664,3.93963139 100.217101,3.76052619 100.332457,3.59280479 L100.390135,3.51615384 C100.504732,3.37499465 100.649685,3.2983437 100.822719,3.28544205 C100.995753,3.27254041 101.146778,3.32338807 101.275036,3.43950288 C101.313741,3.4774489 101.345615,3.4774489 101.371419,3.43950288 C101.833601,2.57964614 102.250248,1.67501309 102.623637,0.724844819 C102.712431,0.507034681 102.866492,0.346902488 103.085061,0.243689322 C103.200417,0.179940013 103.316532,0.147306438 103.431128,0.147306438 C103.534342,0.147306438 103.636037,0.166279447 103.73925,0.204984384 C103.944159,0.282394259 104.092148,0.429624806 104.181701,0.647434944 C104.220406,0.737746465 104.239379,0.828057986 104.239379,0.916851666 C104.239379,1.03296648 104.207504,1.14832237 104.143755,1.26443718 C103.450101,2.59937806 102.86042,3.63834001 102.372435,4.38208195 C102.320828,4.45949182 102.327658,4.5369017 102.392167,4.61355265 C102.661583,4.93457596 102.885465,5.21689433 103.066088,5.46050776 C103.091132,5.48631105 103.123766,5.49921269 103.161712,5.49921269 C103.200417,5.49921269 103.225461,5.47948076 103.239122,5.44077583 C103.802999,4.55587471 104.297816,3.71574989 104.721293,2.91964245 C104.836649,2.71473396 105.002853,2.57281585 105.221422,2.4961649 C105.323876,2.45745996 105.420259,2.43772803 105.51057,2.43772803 C105.638069,2.43772803 105.760255,2.47036161 105.87637,2.53411092 C106.069136,2.62442244 106.196634,2.7724119 106.261142,2.97732039 C106.286946,3.05397135 106.299847,3.12530986 106.299847,3.18905917 C106.299847,3.33097727 106.261142,3.45847589 106.184491,3.57383178 C105.028656,5.37095515 103.938087,6.92370618 102.911268,8.23284377 C102.899125,8.25864706 102.899125,8.28445035 102.911268,8.30949472 C102.92417,8.33605693 102.943143,8.34819966 102.969705,8.34819966 L105.009683,8.21311184 C105.048388,8.21311184 105.074191,8.20096911 105.087093,8.1744069 C105.099235,8.14936253 105.099235,8.11672895 105.087093,8.07878294 C104.996781,7.86021388 104.881425,7.61660045 104.741025,7.34718373 C104.649955,7.18098017 104.637812,7.01022309 104.70232,6.83643034 C104.766069,6.66415542 104.881425,6.53893356 105.048388,6.46152369 C105.241153,6.38487273 105.433919,6.37424785 105.626685,6.43344363 C105.817933,6.49036266 105.965922,6.60951315 106.069136,6.78861835 C106.530559,7.63633238 106.90243,8.4316809 107.185507,9.17618175 C107.19765,9.1890834 107.210552,9.19515476 107.223453,9.19515476 C107.236355,9.19515476 107.242426,9.1890834 107.242426,9.17618175 L107.242426,1.93759953 C107.242426,1.62947787 107.351711,1.36309683 107.57028,1.13845641 C107.78809,0.914574905 108.058266,0.802254694 108.37853,0.802254694 L116.386658,0.802254694 Z" id="Fill-7"></path>
                </g>
                <g id="Group-5" stroke="#5486F4" stroke-linecap="round" stroke-linejoin="round" stroke-width="0.4">
                    <path d="M16.2816957,35.9273636 C15.8704328,35.9273636 15.5359744,35.5929052 15.5359744,35.1816423 C15.5359744,34.7703795 15.8704328,34.435921 16.2816957,34.435921 C16.6929585,34.435921 17.027417,34.7703795 17.027417,35.1816423 C17.027417,35.5929052 16.6929585,35.9273636 16.2816957,35.9273636 M22.562629,26.7993715 C22.249358,26.7138651 21.9243582,26.8977416 21.8380951,27.2117694 C21.0745915,29.9941309 19.5755819,32.2384834 17.5022421,33.7053335 C17.1689187,33.4291405 16.7470621,33.2566144 16.2816957,33.2566144 C15.2200549,33.2566144 14.3566677,34.1200015 14.3566677,35.1816423 C14.3566677,36.2429048 15.2200549,37.1066703 16.2816957,37.1066703 C17.3433365,37.1066703 18.2067236,36.2429048 18.2067236,35.1816423 C18.2067236,35.0128997 18.1783476,34.8524807 18.1374862,34.6966019 C18.1454315,34.6916834 18.1545118,34.6897916 18.1620787,34.6844948 C20.4722636,33.0583607 22.1366107,30.58246 22.9754053,27.5242837 C23.06129,27.2098776 22.8766568,26.8856345 22.562629,26.7993715" id="Fill-50"></path>
                    <path d="M23.4700449,23.6926641 C23.0587821,23.6926641 22.7239453,23.3582056 22.7239453,22.9469428 C22.7239453,22.5356799 23.0587821,22.2012215 23.4700449,22.2012215 C23.8813078,22.2012215 24.2157662,22.5356799 24.2157662,22.9469428 C24.2157662,23.3582056 23.8813078,23.6926641 23.4700449,23.6926641 M31.3362509,7.8925281 C27.023477,7.8925281 23.5146898,11.4016936 23.5146898,15.7148459 C23.5146898,16.040224 23.7783975,16.30431 24.1045323,16.30431 C24.4299105,16.30431 24.6936181,16.040224 24.6936181,15.7148459 C24.6936181,12.0516932 27.673855,9.07183472 31.3362509,9.07183472 C34.9994035,9.07183472 37.979262,12.0516932 37.979262,15.7148459 C37.979262,19.3776201 34.9994035,22.3574787 31.3362509,22.3574787 L25.2929193,22.3574787 C25.0420754,21.5852731 24.3247301,21.0219148 23.4700449,21.0219148 C22.4084041,21.0219148 21.545017,21.885302 21.545017,22.9469428 C21.545017,24.0082053 22.4084041,24.8719707 23.4700449,24.8719707 C24.3247301,24.8719707 25.0420754,24.3086125 25.2929193,23.5364069 L31.3362509,23.5364069 C35.6494031,23.5364069 39.1585687,20.0276198 39.1585687,15.7148459 C39.1585687,11.4016936 35.6494031,7.8925281 31.3362509,7.8925281" id="Fill-52"></path>
                    <path d="M13.1983972,9.81373474 C13.6092817,9.81373474 13.9441185,10.1481932 13.9441185,10.5598344 C13.9441185,10.9707189 13.6092817,11.3051774 13.1983972,11.3051774 C12.7871343,11.3051774 12.4522975,10.9707189 12.4522975,10.5598344 C12.4522975,10.1481932 12.7871343,9.81373474 13.1983972,9.81373474 M18.9311062,22.946905 C18.9311062,22.6211485 18.6673986,22.3574408 18.3416421,22.3574408 L7.9367298,22.3574408 C4.27395552,22.3574408 1.29409701,19.3775823 1.29409701,15.714808 C1.29409701,12.0520337 4.27395552,9.07217524 7.9367298,9.07217524 C9.14895259,9.07217524 10.3275025,9.40322859 11.3584972,10.0244738 C11.3081771,10.1954866 11.2733692,10.3725528 11.2733692,10.5598344 C11.2733692,11.6210969 12.1367564,12.4848624 13.1983972,12.4848624 C14.2596596,12.4848624 15.1234251,11.6210969 15.1234251,10.5598344 C15.1234251,9.49819361 14.2596596,8.63442812 13.1983972,8.63442812 C12.7530831,8.63442812 12.3482522,8.79257703 12.021739,9.04720436 C10.794004,8.29353775 9.38541927,7.89249026 7.9367298,7.89249026 C3.62357756,7.89249026 0.114412038,11.4016558 0.114412038,15.714808 C0.114412038,20.0279603 3.62357756,23.5367474 7.9367298,23.5367474 L18.3416421,23.5367474 C18.6673986,23.5367474 18.9311062,23.2726615 18.9311062,22.946905" id="Fill-54"></path>
                    <path d="M27.5757226,3.93832417 C27.9869855,3.93832417 28.321444,4.27278265 28.321444,4.6840455 C28.321444,5.09530834 27.9869855,5.42976682 27.5757226,5.42976682 C27.1644598,5.42976682 26.829623,5.09530834 26.829623,4.6840455 C26.829623,4.27278265 27.1644598,3.93832417 27.5757226,3.93832417 M9.34016901,6.10095384 C9.44686277,6.18305507 9.57285222,6.22278147 9.69846332,6.22278147 C9.87552957,6.22278147 10.0507041,6.14295032 10.1668565,5.99161165 C12.5443871,2.88841212 15.7054737,1.17942013 19.0678407,1.17942013 C21.4975831,1.17942013 23.8463594,2.08783053 25.8773244,3.79682251 C25.7373361,4.06355693 25.6503164,4.36245081 25.6503164,4.6840455 C25.6503164,5.7456863 26.5140818,6.60907344 27.5757226,6.60907344 C28.6373635,6.60907344 29.5007506,5.7456863 29.5007506,4.6840455 C29.5007506,3.62278304 28.6373635,2.75901755 27.5757226,2.75901755 C27.2692618,2.75901755 26.9839884,2.83733531 26.7267127,2.96483815 C24.4607944,1.02581137 21.815016,0.000113504006 19.0678407,0.000113504006 C15.3301538,0.000113504006 11.8365004,1.87330795 9.23044847,5.27426633 C9.03257315,5.53267712 9.08175822,5.90307852 9.34016901,6.10095384" id="Fill-56"></path>
                </g>
            </g>
        </g>
    </g>
</svg>