<?xml version="1.0" encoding="UTF-8"?>
<svg width="148px" height="82px" viewBox="0 0 148 82" version="1.1" xmlns="http://www.w3.org/2000/svg" xmlns:xlink="http://www.w3.org/1999/xlink">
    <!-- Generator: Sketch 49 (51002) - http://www.bohemiancoding.com/sketch -->
    <title>cloud 01</title>
    <desc>Created with Sketch.</desc>
    <defs>
        <path d="M578.05814,149 L616.5,149 C623.403559,149 629,154.596441 629,161.5 C629,168.403559 623.403559,174 616.5,174 L525.5,174 C518.596441,174 513,168.403559 513,161.5 C513,154.596441 518.596441,149 525.5,149 L541.686047,149 C534.782487,149 529.186047,143.403559 529.186047,136.5 C529.186047,129.596441 534.782487,124 541.686047,124 L578.05814,124 C584.961699,124 590.55814,129.596441 590.55814,136.5 C590.55814,143.403559 584.961699,149 578.05814,149 Z" id="path-1"></path>
        <filter x="-30.2%" y="-46.0%" width="160.3%" height="240.0%" filterUnits="objectBoundingBox" id="filter-2">
            <feOffset dx="0" dy="10" in="SourceAlpha" result="shadowOffsetOuter1"></feOffset>
            <feGaussianBlur stdDeviation="8" in="shadowOffsetOuter1" result="shadowBlurOuter1"></feGaussianBlur>
            <feColorMatrix values="0 0 0 0 0   0 0 0 0 0   0 0 0 0 0  0 0 0 0.0897305254 0" type="matrix" in="shadowBlurOuter1" result="shadowMatrixOuter1"></feColorMatrix>
            <feOffset dx="0" dy="2" in="SourceAlpha" result="shadowOffsetOuter2"></feOffset>
            <feGaussianBlur stdDeviation="3" in="shadowOffsetOuter2" result="shadowBlurOuter2"></feGaussianBlur>
            <feColorMatrix values="0 0 0 0 0   0 0 0 0 0   0 0 0 0 0  0 0 0 0.03 0" type="matrix" in="shadowBlurOuter2" result="shadowMatrixOuter2"></feColorMatrix>
            <feMerge>
                <feMergeNode in="shadowMatrixOuter1"></feMergeNode>
                <feMergeNode in="shadowMatrixOuter2"></feMergeNode>
            </feMerge>
        </filter>
    </defs>
    <g id="Page-1" stroke="none" stroke-width="1" fill="none" fill-rule="evenodd">
        <g id="Tablet" transform="translate(-497.000000, -118.000000)">
            <g id="cloud-01">
                <use fill="black" fill-opacity="1" filter="url(#filter-2)" xlink:href="#path-1"></use>
                <use fill="#FFFFFF" fill-rule="evenodd" xlink:href="#path-1"></use>
            </g>
        </g>
    </g>
</svg>