<?xml version="1.0" encoding="UTF-8"?>
<svg width="193px" height="118px" viewBox="0 0 193 118" version="1.1" xmlns="http://www.w3.org/2000/svg" xmlns:xlink="http://www.w3.org/1999/xlink">
    <!-- Generator: Sketch 49 (51002) - http://www.bohemiancoding.com/sketch -->
    <title>LOGO</title>
    <desc>Created with Sketch.</desc>
    <defs></defs>
    <g id="Page-1" stroke="none" stroke-width="1" fill="none" fill-rule="evenodd">
        <g id="Tablet" transform="translate(-287.000000, -8267.000000)" fill="#FFFFFF">
            <g id="LOGO" transform="translate(288.000000, 8268.000000)">
                <g id="Group-6" transform="translate(0.000000, 66.480568)" stroke="#FFFFFF" stroke-width="0.5">
                    <path d="M0,1.57301783 C0,1.08477243 0.349251534,0.857435006 0.819828221,0.857435006 C1.30925153,0.857435006 1.67499387,1.08477243 1.67499387,1.57301783 L1.67499387,13.9446497 C1.67499387,14.4158154 1.30925153,14.6602326 0.819828221,14.6602326 C0.349251534,14.6602326 0,14.4158154 0,13.9446497 L0,1.57301783 Z" id="Fill-12"></path>
                    <path d="M13.3275092,13.7125528 C13.3275092,14.1843074 12.9782577,14.4110559 12.5241718,14.4110559 C12.0535951,14.4110559 11.7214233,14.1843074 11.7214233,13.7125528 L11.7214233,8.12923996 C11.7214233,6.64565714 11.1283436,5.80874917 9.82026994,5.80874917 C8.87734969,5.80874917 8.09226994,6.22749763 7.49919018,7.04732585 C7.06336196,7.64040561 6.96088344,8.1492645 6.88844172,8.82715407 L6.88844172,13.7125528 C6.88844172,14.1843074 6.5568589,14.4110559 6.10277301,14.4110559 C5.61452761,14.4110559 5.3006135,14.1843074 5.3006135,13.7125528 L5.3006135,5.21508045 C5.3006135,4.76099457 5.63219632,4.53483506 6.12044172,4.53483506 C6.57452761,4.53483506 6.88844172,4.76099457 6.88844172,5.21508045 L6.88844172,5.6862461 C7.45030675,4.80104364 8.4768589,4.3463688 10.134773,4.39466328 C12.1313374,4.45355898 13.3275092,5.65090868 13.3275092,7.7982461 L13.3275092,13.7125528 Z" id="Fill-14"></path>
                    <path d="M79.2906994,13.7125528 C79.2906994,14.1843074 78.9414479,14.4110559 78.487362,14.4110559 C78.0167853,14.4110559 77.6846135,14.1843074 77.6846135,13.7125528 L77.6846135,8.12923996 C77.6846135,6.64565714 77.0915337,5.80874917 75.7828712,5.80874917 C74.8405399,5.80874917 74.0554601,6.22749763 73.4623804,7.04732585 C73.0265521,7.64040561 72.9240736,8.1492645 72.8516319,8.82715407 L72.8516319,13.7125528 C72.8516319,14.1843074 72.5200491,14.4110559 72.0659632,14.4110559 C71.5777178,14.4110559 71.2638037,14.1843074 71.2638037,13.7125528 L71.2638037,5.21508045 C71.2638037,4.76099457 71.5953865,4.53483506 72.0836319,4.53483506 C72.5377178,4.53483506 72.8516319,4.76099457 72.8516319,5.21508045 L72.8516319,5.6862461 C73.4134969,4.80104364 74.4400491,4.3463688 76.0973742,4.39466328 C78.0945276,4.45355898 79.2906994,5.65090868 79.2906994,7.7982461 L79.2906994,13.7125528 Z" id="Fill-16"></path>
                    <path d="M17.8736687,2.73267427 C17.8736687,2.27917734 18.1705031,2.03534912 18.6587485,2.03534912 C19.1122454,2.03534912 19.4444172,2.27917734 19.4444172,2.73267427 L19.4444172,4.84408531 L21.6777423,4.84408531 C22.1129816,4.84408531 22.3232393,5.12325096 22.3232393,5.54199942 C22.3232393,5.94425709 22.0953129,6.22342274 21.6777423,6.22342274 L19.4444172,6.22342274 L19.4444172,12.0688215 C19.4444172,12.9239872 19.8101595,13.2903184 20.4556564,13.2903184 C20.8920736,13.2903184 21.188908,13.1678154 21.4851534,12.9934841 C21.5899877,12.940478 21.6942331,12.9063184 21.7996564,12.9063184 C22.0611534,12.9063184 22.2702331,13.0977295 22.3750675,13.3592264 C22.4274847,13.4823184 22.4451534,13.6207233 22.4451534,13.7438154 C22.4451534,13.9876436 22.340319,14.2314718 22.0788221,14.3716436 C21.572319,14.6160608 21.1017423,14.7550546 20.351411,14.7550546 C18.9202454,14.7550546 17.8736687,14.0406497 17.8736687,12.2084043 L17.8736687,6.22342274 L16.512,6.22342274 C16.0938405,6.22342274 15.9018405,5.94425709 15.9018405,5.54199942 C15.9018405,5.14091967 16.0938405,4.84408531 16.5296687,4.84408531 L17.8736687,4.84408531 L17.8736687,2.73267427 Z" id="Fill-20"></path>
                    <path d="M30.2765153,8.49208531 C30.4691043,8.49208531 30.5380123,8.42141047 30.5380123,8.26474789 L30.5380123,8.17758225 C30.3295215,6.93900556 29.5786012,5.66509145 27.9736933,5.66509145 C26.2986994,5.66509145 25.3911166,6.78175402 25.1643681,8.49208531 L30.2765153,8.49208531 Z M25.111362,9.76599942 C25.1466994,11.91157 26.2109448,13.25557 28.0956074,13.25557 C29.3524417,13.25557 30.0503558,12.6271528 30.4691043,11.7024902 C30.6257669,11.3885761 30.8525153,11.266073 31.0969325,11.266073 C31.2188466,11.266073 31.3419387,11.3014105 31.4638528,11.33557 C31.7606871,11.4239135 32.0045153,11.6324043 32.0045153,11.9463184 C32.0045153,12.0511528 31.9868466,12.1565761 31.9173497,12.2608215 C31.3590184,13.4122326 30.3471902,14.5642326 28.0785276,14.5642326 C25.2167853,14.5642326 23.5582822,12.5399872 23.5582822,9.52099329 C23.5582822,6.50258838 25.1290307,4.39117734 27.9736933,4.39117734 C30.5215215,4.39117734 31.9515092,6.38067427 32.1264294,8.66582764 L32.1264294,8.80599942 C32.1264294,9.4344166 31.7948466,9.76599942 31.2535951,9.76599942 L25.111362,9.76599942 Z" id="Fill-22"></path>
                    <path d="M34.7484663,1.55534912 C34.7484663,1.08477243 35.0629693,0.857435006 35.5518037,0.857435006 C36.0223804,0.857435006 36.3362945,1.08477243 36.3362945,1.55534912 L36.3362945,13.9617295 C36.3362945,14.4334841 36.0223804,14.6596436 35.5518037,14.6596436 C35.0629693,14.6596436 34.7484663,14.4334841 34.7484663,13.9617295 L34.7484663,1.55534912 Z" id="Fill-24"></path>
                    <path d="M39.4601227,1.55534912 C39.4601227,1.08477243 39.7746258,0.857435006 40.2634601,0.857435006 C40.7340368,0.857435006 41.0485399,1.08477243 41.0485399,1.55534912 L41.0485399,13.9617295 C41.0485399,14.4334841 40.7340368,14.6596436 40.2634601,14.6596436 C39.7746258,14.6596436 39.4601227,14.4334841 39.4601227,13.9617295 L39.4601227,1.55534912 Z" id="Fill-26"></path>
                    <path d="M44.5551902,5.4819258 C44.5551902,5.02783991 44.8520245,4.80168041 45.3402699,4.80168041 C45.8114356,4.80168041 46.1436074,5.02783991 46.1436074,5.4819258 L46.1436074,13.9793982 C46.1436074,14.4511528 45.8114356,14.6779013 45.3402699,14.6779013 C44.8520245,14.6779013 44.5551902,14.4511528 44.5551902,13.9793982 L44.5551902,5.4819258 Z M46.5270184,2.02710372 C46.5270184,2.70793807 46.0040245,3.21385218 45.3579387,3.21385218 C44.694773,3.21385218 44.1717791,2.70793807 44.1717791,2.02710372 C44.1717791,1.36452703 44.694773,0.857435006 45.3579387,0.857435006 C46.0040245,0.857435006 46.5270184,1.36452703 46.5270184,2.02710372 Z" id="Fill-28"></path>
                    <path d="M50.4895215,9.41674789 C50.4895215,11.6324043 51.675681,12.9764043 53.2988466,12.9764043 C55.0786748,12.9764043 56.16,11.458073 56.16,9.29424482 C56.16,7.2181712 55.0963436,5.71750863 53.3165153,5.71750863 C51.5360982,5.71750863 50.4895215,7.16575402 50.4895215,9.41674789 Z M56.1252515,5.14209758 C56.1252515,4.77517734 56.3702577,4.51309145 56.8755828,4.51309145 C57.3473374,4.51309145 57.6265031,4.73983991 57.6265031,5.21100556 L57.6265031,13.2897295 C57.6265031,17.3034718 55.515092,18.2110546 53.211092,18.2110546 C51.3270184,18.2110546 50.1231902,17.5820485 49.4594356,16.7280608 C49.3728589,16.6061467 49.3204417,16.4830546 49.3204417,16.3434718 C49.3204417,16.1173123 49.4423558,15.8905638 49.6520245,15.7339013 C49.7916074,15.627889 49.9830184,15.558981 50.1579387,15.558981 C50.3499387,15.558981 50.5248589,15.627889 50.6644417,15.7851405 C51.3099387,16.5360608 52.0779387,16.9018031 53.1415951,16.9018031 C55.3225031,16.9018031 56.1087607,15.8028092 56.1252515,13.2208215 C56.1252515,13.1383675 56.1305521,13.0305884 56.1393865,12.9133859 C56.1523436,12.7325761 55.4556074,14.2497295 53.0891779,14.2497295 C50.6114356,14.2497295 48.8834356,12.3303184 48.8834356,9.41674789 C48.8834356,6.41483378 50.4371043,4.39117734 53.1245153,4.39117734 C55.6293497,4.39117734 56.1252515,5.85650249 56.1252515,5.66509145 L56.1252515,5.14209758 Z" id="Fill-30"></path>
                    <path d="M66.7918528,8.49208531 C66.9838528,8.49208531 67.0533497,8.42141047 67.0533497,8.26474789 L67.0533497,8.17758225 C66.8442699,6.93900556 66.0939387,5.66509145 64.4890307,5.66509145 C62.8140368,5.66509145 61.905865,6.78175402 61.6791166,8.49208531 L66.7918528,8.49208531 Z M61.6266994,9.76599942 C61.6620368,11.91157 62.7262822,13.25557 64.6109448,13.25557 C65.8671902,13.25557 66.5651043,12.6271528 66.9838528,11.7024902 C67.1411043,11.3885761 67.3678528,11.266073 67.611681,11.266073 C67.734773,11.266073 67.8566871,11.3014105 67.9786012,11.33557 C68.2754356,11.4239135 68.5198528,11.6324043 68.5198528,11.9463184 C68.5198528,12.0511528 68.502184,12.1565761 68.4320982,12.2608215 C67.8731779,13.4122326 66.8619387,14.5642326 64.5932761,14.5642326 C61.7315337,14.5642326 60.0736196,12.5399872 60.0736196,9.52099329 C60.0736196,6.50258838 61.6443681,4.39117734 64.4890307,4.39117734 C67.035681,4.39117734 68.4668466,6.38067427 68.6417669,8.66582764 L68.6417669,8.80599942 C68.6417669,9.4344166 68.3095951,9.76599942 67.7689325,9.76599942 L61.6266994,9.76599942 Z" id="Fill-32"></path>
                    <path d="M83.8368589,2.73267427 C83.8368589,2.27917734 84.1331043,2.03534912 84.6219387,2.03534912 C85.0754356,2.03534912 85.4064294,2.27917734 85.4064294,2.73267427 L85.4064294,4.84408531 L87.6403436,4.84408531 C88.0761718,4.84408531 88.2864294,5.12325096 88.2864294,5.54199942 C88.2864294,5.94425709 88.059681,6.22342274 87.6403436,6.22342274 L85.4064294,6.22342274 L85.4064294,12.0688215 C85.4064294,12.9239872 85.7733497,13.2903184 86.4188466,13.2903184 C86.8552638,13.2903184 87.1515092,13.1678154 87.4483436,12.9934841 C87.5531779,12.940478 87.6574233,12.9063184 87.7628466,12.9063184 C88.0243436,12.9063184 88.2334233,13.0977295 88.3388466,13.3592264 C88.3906748,13.4823184 88.4083436,13.6207233 88.4083436,13.7438154 C88.4083436,13.9876436 88.3035092,14.2314718 88.0420123,14.3716436 C87.5355092,14.6160608 87.0649325,14.7550546 86.3146012,14.7550546 C84.8834356,14.7550546 83.8368589,14.0406497 83.8368589,12.2084043 L83.8368589,6.22342274 L82.4757791,6.22342274 C82.0564417,6.22342274 81.8650307,5.94425709 81.8650307,5.54199942 C81.8650307,5.14091967 82.0564417,4.84408531 82.4928589,4.84408531 L83.8368589,4.84408531 L83.8368589,2.73267427 Z" id="Fill-34"></path>
                    <path d="M126.625767,5.08909145 C126.625767,4.6179258 126.975607,4.39117734 127.429104,4.39117734 C127.899681,4.39117734 128.231853,4.6179258 128.231853,5.08909145 L128.231853,10.6724043 C128.231853,12.1559872 128.824933,12.9934841 130.133595,12.9934841 C131.076515,12.9934841 131.861595,12.5747356 132.454675,11.7543184 C132.890503,11.1612387 132.992982,10.6523798 133.065423,9.97507918 L133.065423,5.08909145 C133.065423,4.6179258 133.397006,4.39117734 133.851092,4.39117734 C134.338748,4.39117734 134.653252,4.6179258 134.653252,5.08909145 L134.653252,13.5871528 C134.653252,14.0406497 134.32108,14.2673982 133.832834,14.2673982 C133.379337,14.2673982 133.065423,14.0406497 133.065423,13.5871528 L133.065423,13.1153982 C132.502969,14.0006007 131.476417,14.4552755 129.819092,14.4063921 C127.821939,14.3486743 126.625767,13.1507356 126.625767,11.0039872 L126.625767,5.08909145 Z" id="Fill-18"></path>
                    <path d="M107.687264,3.40938593 C107.74027,3.53130004 107.756761,3.6538031 107.756761,3.7580485 C107.756761,4.12496875 107.477595,4.36879697 107.215509,4.45596261 C107.076515,4.50837979 106.936933,4.5260485 106.796761,4.5260485 C106.499926,4.5260485 106.22135,4.40413439 106.064687,4.07196261 C105.540515,2.81571721 104.668859,1.78622028 102.679362,1.78622028 C100.061448,1.78622028 98.3346258,3.89763133 98.3346258,7.33596261 C98.3346258,10.7030301 100.061448,12.8668583 102.679362,12.8668583 C104.773693,12.8668583 105.767853,11.610024 106.22135,10.2141957 C106.360933,9.8307847 106.674847,9.67353317 107.007018,9.67353317 C107.111264,9.67353317 107.233178,9.69120188 107.355681,9.72595034 C107.651926,9.79544728 107.966429,10.0575332 107.966429,10.4244534 C107.966429,10.5286988 107.948761,10.6158645 107.914012,10.7201099 C107.303853,12.4475209 105.83735,14.4022694 102.73119,14.4022694 C98.9795337,14.4022694 96.5889571,11.6630301 96.5889571,7.3182939 C96.5889571,3.0778031 98.9795337,0.268477951 102.609276,0.268477951 C105.680687,0.268477951 107.058847,1.87397488 107.687264,3.40938593" id="Fill-36"></path>
                    <path d="M110.723926,1.55534912 C110.723926,1.08477243 111.03784,0.857435006 111.526086,0.857435006 C111.99784,0.857435006 112.311755,1.08477243 112.311755,1.55534912 L112.311755,13.9617295 C112.311755,14.4334841 111.99784,14.6596436 111.526086,14.6596436 C111.03784,14.6596436 110.723926,14.4334841 110.723926,13.9617295 L110.723926,1.55534912 Z" id="Fill-38"></path>
                    <path d="M116.452712,9.50332458 C116.452712,11.7207479 117.499288,13.2384902 119.297374,13.2384902 C121.199117,13.2384902 122.193865,11.7543184 122.193865,9.4344166 C122.193865,7.23583991 121.199117,5.73517734 119.419288,5.73517734 C117.534626,5.73517734 116.452712,7.18342274 116.452712,9.50332458 M123.798773,9.45149636 C123.798773,12.48757 122.123779,14.5813123 119.402209,14.5813123 C116.522209,14.5813123 114.846626,12.5582448 114.846626,9.45149636 C114.846626,6.43250249 116.539288,4.39117734 119.366871,4.39117734 C122.158528,4.39117734 123.798773,6.41542274 123.798773,9.45149636" id="Fill-40"></path>
                    <path d="M138.83308,9.68707918 C138.83308,11.9734105 139.845497,13.4558154 141.607656,13.4558154 C143.439902,13.4558154 144.574233,11.8673982 144.574233,9.70415893 C144.574233,7.57566814 143.527067,6.00491967 141.607656,6.00491967 C139.845497,6.00491967 138.83308,7.47083378 138.83308,9.68707918 Z M144.538896,1.55534912 C144.538896,1.08477243 144.871067,0.857435006 145.306307,0.857435006 C145.795141,0.857435006 146.091975,1.08477243 146.091975,1.55534912 L146.091975,13.9617295 C146.091975,14.4334841 145.778061,14.6596436 145.289816,14.6596436 C144.783313,14.6596436 144.538896,14.380478 144.538896,14.0147356 L144.538896,13.6484043 C144.538896,13.5688951 144.544785,13.4599381 144.553031,13.3427356 C144.56481,13.1748829 144.060074,14.8168951 141.380908,14.8168951 C138.83308,14.8168951 137.226994,12.8109074 137.226994,9.66941047 C137.226994,6.61566814 138.816,4.64383991 141.397399,4.64383991 C144.060074,4.64383991 144.56481,6.10386445 144.551853,5.82410985 C144.543607,5.66037979 144.538896,5.50136139 144.538896,5.35942274 L144.538896,1.55534912 Z" id="Fill-42"></path>
                    <path d="M173.153374,5.08909145 C173.153374,4.6179258 173.502626,4.39117734 173.956123,4.39117734 C174.426699,4.39117734 174.758871,4.6179258 174.758871,5.08909145 L174.758871,10.6724043 C174.758871,12.1559872 175.351951,12.9934841 176.660613,12.9934841 C177.603534,12.9934841 178.388613,12.5747356 178.981693,11.7543184 C179.417521,11.1612387 179.52,10.6523798 179.592442,9.97507918 L179.592442,5.08909145 C179.592442,4.6179258 179.924025,4.39117734 180.37811,4.39117734 C180.866356,4.39117734 181.18027,4.6179258 181.18027,5.08909145 L181.18027,13.5871528 C181.18027,14.0406497 180.848098,14.2673982 180.359853,14.2673982 C179.906356,14.2673982 179.592442,14.0406497 179.592442,13.5871528 L179.592442,13.1153982 C179.030577,14.0006007 178.004025,14.4552755 176.34611,14.4063921 C174.348957,14.3486743 173.153374,13.1507356 173.153374,11.0039872 L173.153374,5.08909145 Z" id="Fill-10"></path>
                    <path d="M161.622773,7.41782764 C163.385521,7.41782764 164.327853,6.47549636 164.327853,4.78283378 C164.327853,3.21326323 163.367853,2.34042887 161.622773,2.34042887 L158.272785,2.34042887 C157.888785,2.34042887 157.713865,2.56717734 157.713865,2.95117734 L157.713865,7.41782764 L161.622773,7.41782764 Z M157.713865,13.8221467 C157.713865,14.3103921 157.365202,14.5548092 156.894037,14.5548092 C156.405791,14.5548092 156.07362,14.3103921 156.07362,13.8050669 L156.07362,2.74209758 C156.07362,1.39868654 156.614871,0.857435006 157.854037,0.857435006 L161.728196,0.857435006 C164.484515,0.857435006 166.037595,2.27034298 166.037595,4.74867427 C166.037595,7.36599942 164.432098,8.88374175 161.65811,8.88374175 L157.713865,8.88374175 L157.713865,13.8221467 Z" id="Fill-44"></path>
                    <path d="M168.441718,1.55534912 C168.441718,1.08477243 168.755632,0.857435006 169.243877,0.857435006 C169.715632,0.857435006 170.029546,1.08477243 170.029546,1.55534912 L170.029546,13.9617295 C170.029546,14.4334841 169.715632,14.6596436 169.243877,14.6596436 C168.755632,14.6596436 168.441718,14.4334841 168.441718,13.9617295 L168.441718,1.55534912 Z" id="Fill-46"></path>
                    <path d="M187.052761,9.88791353 C184.906601,9.46916507 184.016687,8.71883378 184.016687,7.06091967 C184.016687,5.47368041 185.377178,4.39117734 187.628761,4.39117734 C189.565252,4.39117734 190.803828,5.21159452 191.240245,6.48550863 C191.257914,6.55559452 191.275583,6.62450249 191.275583,6.69517734 C191.275583,7.0261712 190.978748,7.25350863 190.665423,7.34008531 C190.57708,7.35775402 190.473423,7.37542274 190.386258,7.37542274 C190.071755,7.37542274 189.75784,7.23583991 189.670675,6.90425709 C189.443337,6.11917734 188.675926,5.71750863 187.681178,5.71750863 C186.267681,5.71750863 185.605104,6.29350863 185.605104,7.0261712 C185.605104,7.82891967 185.936098,8.1781712 187.402012,8.49208531 L188.483926,8.71883378 C190.752,9.18999942 191.658994,9.85257611 191.658994,11.6854105 C191.658994,13.3604043 190.229006,14.598981 187.785423,14.598981 C185.552098,14.598981 184.244025,13.7090669 183.789939,12.1571651 C183.772859,12.0688215 183.754601,11.9993246 183.754601,11.9292387 C183.754601,11.5805761 184.051436,11.3367479 184.383018,11.266662 C184.470184,11.2489933 184.557939,11.2313246 184.628025,11.2313246 C184.958429,11.2313246 185.273521,11.3714964 185.377178,11.7030792 C185.691681,12.7154964 186.407264,13.2208215 187.785423,13.2208215 C189.181252,13.2208215 190.089423,12.6094841 190.089423,11.7201589 C190.089423,10.8649933 189.635926,10.3938276 188.04692,10.0793246 L187.052761,9.88791353 Z" id="Fill-48"></path>
                </g>
                <g id="Group-8" transform="translate(46.000000, 101.000000)">
                    <path d="M10.8184089,12.3352746 C10.8184089,12.4233033 10.8565978,12.4666704 10.9329756,12.4666704 L13.4456772,12.4666704 C13.5324114,12.4666704 13.5764258,12.4233033 13.5764258,12.3352746 L13.5764258,3.65020757 C13.5764258,3.57382972 13.5324114,3.53499353 13.4456772,3.53499353 L10.9329756,3.53499353 C10.8565978,3.53499353 10.8184089,3.57382972 10.8184089,3.65020757 L10.8184089,12.3352746 Z M9.32386273,2.99322865 C9.32386273,2.72008077 9.41642232,2.49029997 9.60348331,2.30323897 C9.78924977,2.11747252 10.0190306,2.02426566 10.2928257,2.02426566 L14.1842122,2.02426566 C14.4470037,2.02426566 14.6741954,2.11747252 14.8657873,2.30323897 C15.0567319,2.49029997 15.1525279,2.72008077 15.1525279,2.99322865 L15.1525279,14.2395426 C15.1525279,14.4583198 15.07615,14.6440862 14.9227471,14.7981365 C14.7693441,14.9508922 14.5835777,15.0279173 14.3648005,15.0279173 C14.145376,15.0279173 13.9596095,14.9508922 13.8068538,14.7981365 C13.6528036,14.6440862 13.5764258,14.4583198 13.5764258,14.2395426 L13.5764258,14.0757833 C13.5764258,13.9994055 13.5324114,13.9605693 13.4456772,13.9605693 L10.9329756,13.9605693 C10.8565978,13.9605693 10.8184089,13.9994055 10.8184089,14.0757833 L10.8184089,14.4201309 C10.8184089,14.6279045 10.7439728,14.8033146 10.5970426,14.945714 C10.4488178,15.0874661 10.2708185,15.1593131 10.0630449,15.1593131 C9.85462402,15.1593131 9.67986116,15.0874661 9.53746179,14.945714 C9.39506242,14.8033146 9.32386273,14.6279045 9.32386273,14.4201309 L9.32386273,2.99322865 Z M4.48034232,2.9770469 C4.48034232,3.05342475 4.51917851,3.09161367 4.59555636,3.09161367 L7.17363224,3.09161367 C7.43577653,3.09161367 7.66037918,3.18999869 7.8467929,3.387416 C8.03255935,3.56217886 8.12576621,3.78095608 8.12576621,4.04374764 C8.12576621,6.76940105 8.03773751,9.33064791 7.86297464,11.7281355 C7.76458962,13.1178239 7.59435765,13.99358 7.35422053,14.3547566 C7.18981398,14.5948937 7.0176402,14.7677148 6.83640464,14.8719252 C6.65646361,14.9761357 6.42862462,15.0492772 6.15547674,15.0932915 C5.89268517,15.1373059 5.5418649,15.1593131 5.10495774,15.1593131 L4.98974371,15.1593131 C4.77031922,15.1593131 4.57354918,15.0796989 4.39878632,14.9211177 C4.22337619,14.7625366 4.10298399,14.561883 4.03760973,14.3217459 C3.98194453,14.1463357 4.00718805,13.9832237 4.1113985,13.8291735 C4.21560895,13.6764178 4.35995013,13.5993927 4.54636385,13.5993927 C4.92954761,13.6103963 5.21952451,13.6162217 5.41694182,13.6162217 C5.55869392,13.6162217 5.67131888,13.5993927 5.75287488,13.5663819 C5.83572542,13.5340184 5.91469235,13.4576406 5.99107019,13.3366011 C6.16648032,13.1178239 6.29528703,12.3922344 6.37684303,11.1617744 C6.45969357,9.92937254 6.5386605,7.79338198 6.61503834,4.74991907 C6.61503834,4.66253764 6.57102399,4.61852329 6.48364256,4.61852329 L4.54636385,4.61852329 C4.46933873,4.61852329 4.42597165,4.66253764 4.41496807,4.74991907 C4.33859022,7.02701446 4.12240209,8.9914785 3.76705093,10.6439585 C3.4110525,12.2970857 2.81685877,13.6925995 1.98511699,14.8305 C1.86472479,14.9949065 1.70031825,15.0771098 1.49254462,15.0771098 C1.27312014,15.0771098 1.09253184,15.0000847 0.950779742,14.847329 C0.786373196,14.7049296 0.693166335,14.5243413 0.67180643,14.3055641 L0.67180643,14.2071791 C0.67180643,14.0324162 0.720998939,13.8680097 0.819383959,13.7146067 C1.54173713,12.7074548 2.05113851,11.4731112 2.34629357,10.0122231 C2.6420959,8.55068772 2.8226842,6.79658639 2.88805845,4.74991907 C2.88805845,4.66253764 2.84922226,4.61852329 2.77349169,4.61852329 L1.52555538,4.61852329 C1.31713449,4.61852329 1.13654619,4.54408725 0.983790505,4.39715699 C0.829740277,4.24893219 0.754009703,4.07158025 0.754009703,3.86315935 C0.754009703,3.65603299 0.829740277,3.4754447 0.983790505,3.32139447 C1.13654619,3.16863879 1.31713449,3.09161367 1.52555538,3.09161367 L2.80650245,3.09161367 C2.88223302,3.09161367 2.92624737,3.05342475 2.93725096,2.9770469 L2.93725096,1.02293918 C2.93725096,0.815165552 3.01362881,0.634577259 3.16767903,0.481174301 C3.32043472,0.327771342 3.50425936,0.251393498 3.71721115,0.251393498 C3.93081021,0.251393498 4.11398758,0.327771342 4.26739054,0.481174301 C4.42014623,0.634577259 4.49717134,0.815165552 4.49717134,1.02293918 C4.49717134,1.77830311 4.49134591,2.4294566 4.48034232,2.9770469 Z" id="Fill-1"></path>
                    <path d="M38.557159,7.8037383 C38.4147596,7.8037383 38.2943674,7.75454579 38.1959824,7.6555135 C38.0975974,7.55777575 38.0477576,7.43738355 38.0477576,7.29498418 C38.0477576,7.15323208 38.0975974,7.03219262 38.1959824,6.9338076 C38.2943674,6.83477531 38.4147596,6.7855828 38.557159,6.7855828 L41.4142082,6.7855828 C41.5559603,6.7855828 41.6789415,6.83477531 41.7837993,6.9338076 C41.8873624,7.03219262 41.939144,7.15323208 41.939144,7.29498418 C41.939144,7.43738355 41.8873624,7.55777575 41.7837993,7.6555135 C41.6789415,7.75454579 41.5559603,7.8037383 41.4142082,7.8037383 L38.557159,7.8037383 Z M38.2043969,5.7674273 C38.1001864,5.66968955 38.0477576,5.54670827 38.0477576,5.3978362 C38.0477576,5.25090594 38.1001864,5.1272774 38.2043969,5.02889238 C38.3079601,4.93050736 38.4309413,4.88131485 38.5733407,4.88131485 L40.98701,4.88131485 C41.1287621,4.88131485 41.2523907,4.93050736 41.3566011,5.02889238 C41.4608116,5.1272774 41.5125932,5.25090594 41.5125932,5.3978362 C41.5125932,5.54670827 41.4608116,5.66968955 41.3566011,5.7674273 C41.2523907,5.86645959 41.1287621,5.9156521 40.98701,5.9156521 L38.5733407,5.9156521 C38.4309413,5.9156521 38.3079601,5.86645959 38.2043969,5.7674273 Z M39.0989238,12.1054938 C39.1092802,12.1054938 39.1151056,12.0970793 39.1151056,12.0808976 C39.1151056,12.0640686 39.104102,12.0563013 39.0827421,12.0563013 L35.0929706,12.0563013 C35.0159455,12.0563013 34.9557494,12.0893121 34.9123824,12.1546863 C34.5939256,12.6252515 34.2443999,13.096464 33.8612161,13.5663819 C33.8392089,13.5773855 33.8340308,13.5942145 33.8450343,13.6155744 C33.8553907,13.6382289 33.8722197,13.6485852 33.8942269,13.6485852 C36.6852545,13.5942145 38.5623371,13.5560256 39.526122,13.5340184 C39.5474819,13.5340184 39.5610745,13.5256039 39.5669,13.5087749 C39.5720781,13.4932404 39.5636636,13.4796478 39.5423037,13.4679969 C39.3889007,13.3366011 39.2186688,13.2052053 39.0329023,13.0744568 C38.869143,12.9650682 38.7869398,12.811018 38.7869398,12.6142479 C38.7869398,12.3741108 38.890503,12.2038788 39.0989238,12.1054938 Z M34.4690025,4.88131485 C34.6107546,4.88131485 34.7343831,4.93050736 34.8379463,5.02889238 C34.942804,5.1272774 34.9945856,5.25090594 34.9945856,5.3978362 C34.9945856,5.54670827 34.942804,5.66968955 34.8379463,5.7674273 C34.7343831,5.86645959 34.6107546,5.9156521 34.4690025,5.9156521 L32.1045257,5.9156521 C31.9511227,5.9156521 31.8255524,5.86645959 31.7271673,5.7674273 C31.6281351,5.66968955 31.5789425,5.54670827 31.5789425,5.3978362 C31.5789425,5.25090594 31.6281351,5.1272774 31.7271673,5.02889238 C31.8255524,4.93050736 31.9511227,4.88131485 32.1045257,4.88131485 L34.4690025,4.88131485 Z M31.7433491,7.8037383 C31.6009497,7.8037383 31.4779684,7.75454579 31.3744053,7.6555135 C31.2701948,7.55777575 31.2184132,7.43738355 31.2184132,7.29498418 C31.2184132,7.15323208 31.2701948,7.03219262 31.3744053,6.9338076 C31.4779684,6.83477531 31.6009497,6.7855828 31.7433491,6.7855828 L34.4851842,6.7855828 C34.61658,6.7855828 34.7343831,6.83477531 34.8379463,6.9338076 C34.942804,7.03219262 34.9945856,7.15323208 34.9945856,7.29498418 C34.9945856,7.43738355 34.942804,7.55777575 34.8379463,7.6555135 C34.7343831,7.75454579 34.61658,7.8037383 34.4851842,7.8037383 L31.7433491,7.8037383 Z M31.5957716,9.87241279 C31.4417213,9.87241279 31.3083837,9.81545304 31.1931697,9.69959174 C31.0786029,9.58502497 31.0209959,9.44845103 31.0209959,9.28986991 C31.0209959,9.13128879 31.0786029,8.99406758 31.1931697,8.87885355 C31.3083837,8.76428678 31.4417213,8.70667976 31.5957716,8.70667976 L41.5617857,8.70667976 C41.7145414,8.70667976 41.8491735,8.76428678 41.9637403,8.87885355 C42.0789543,8.99406758 42.1365613,9.13128879 42.1365613,9.28986991 C42.1365613,9.44845103 42.0789543,9.58502497 41.9637403,9.69959174 C41.8491735,9.81545304 41.7145414,9.87241279 41.5617857,9.87241279 L31.5957716,9.87241279 Z M30.9226109,4.0275659 C30.8455858,4.0275659 30.8073969,4.06640209 30.8073969,4.14213266 L30.8073969,5.81726708 C30.8073969,6.0036808 30.7394335,6.16420373 30.601565,6.30207221 C30.4656384,6.43864615 30.3012318,6.50660949 30.1096399,6.50660949 C29.9180481,6.50660949 29.7542888,6.43864615 29.6170676,6.30207221 C29.4804936,6.16420373 29.411883,6.0036808 29.411883,5.81726708 L29.411883,3.81396684 C29.411883,3.54081896 29.5044426,3.31103816 29.6908563,3.12462443 C29.8766228,2.93821071 30.1070509,2.84500385 30.380846,2.84500385 L35.6179065,2.84500385 C35.7052879,2.84500385 35.7499496,2.80163677 35.7499496,2.71425534 L35.7499496,1.99190217 C35.7499496,1.91552432 35.7052879,1.87668813 35.6179065,1.87668813 L31.0209959,1.87668813 C30.8455858,1.87668813 30.6980083,1.81649203 30.5776161,1.69609984 C30.4565766,1.57570764 30.3970278,1.43071919 30.3970278,1.26048722 C30.3970278,1.09090251 30.4565766,0.946561334 30.5776161,0.826169139 C30.6980083,0.705776944 30.8455858,0.644933577 31.0209959,0.644933577 L42.0873688,0.644933577 C42.2621317,0.644933577 42.4097092,0.705776944 42.5307487,0.826169139 C42.6504936,0.946561334 42.7106897,1.09090251 42.7106897,1.26048722 C42.7106897,1.43071919 42.6504936,1.57570764 42.5307487,1.69609984 C42.4097092,1.81649203 42.2621317,1.87668813 42.0873688,1.87668813 L37.4076077,1.87668813 C37.319579,1.87668813 37.2762119,1.91552432 37.2762119,1.99190217 L37.2762119,2.71425534 C37.2762119,2.80163677 37.319579,2.84500385 37.4076077,2.84500385 L42.7767112,2.84500385 C43.0498591,2.84500385 43.2796399,2.93821071 43.4660536,3.12462443 C43.6524674,3.31103816 43.7456742,3.54081896 43.7456742,3.81396684 L43.7456742,5.78425631 C43.7456742,5.98167362 43.6738273,6.15125833 43.5320752,6.2936577 C43.3896758,6.43605707 43.2200911,6.50660949 43.0226738,6.50660949 C42.8259037,6.50660949 42.6556718,6.43605707 42.5139197,6.2936577 C42.3715203,6.15125833 42.3003206,5.98167362 42.3003206,5.78425631 L42.3003206,4.14213266 C42.3003206,4.06640209 42.2621317,4.0275659 42.1857538,4.0275659 L37.4076077,4.0275659 C37.319579,4.0275659 37.2762119,4.06640209 37.2762119,4.14213266 L37.2762119,7.36035844 C37.2762119,7.56877934 37.2024231,7.74677855 37.0554929,7.89370881 C36.9066208,8.04193361 36.7266798,8.11572237 36.5124335,8.11572237 C36.3001289,8.11572237 36.1182461,8.04193361 35.9713159,7.89370881 C35.8230911,7.74677855 35.7499496,7.56877934 35.7499496,7.36035844 L35.7499496,4.14213266 C35.7499496,4.06640209 35.7052879,4.0275659 35.6179065,4.0275659 L30.9226109,4.0275659 Z M43.4660536,10.8575575 C43.6304602,10.8575575 43.7722123,10.9184009 43.8932517,11.0381458 C44.0136439,11.1591853 44.07384,11.3009374 44.07384,11.4653439 C44.07384,11.6291032 44.0136439,11.7682662 43.8932517,11.8841275 C43.7722123,11.998047 43.6304602,12.0563013 43.4660536,12.0563013 L39.9526728,12.0563013 C39.9306656,12.0563013 39.919662,12.0640686 39.919662,12.0808976 C39.919662,12.0970793 39.9248402,12.1113193 39.9364911,12.1216756 C41.0523843,12.8556796 42.0051655,13.5773855 42.792893,14.2893824 C42.9022816,14.3981237 42.9572995,14.5295195 42.9572995,14.6829224 L42.9572995,14.7813075 C42.9242888,14.9787248 42.8200783,15.1204769 42.6453154,15.2085056 C42.4919125,15.2745271 42.3333314,15.3068906 42.1695721,15.3068906 C42.1035506,15.3068906 42.037529,15.3010652 41.9721548,15.2907088 C41.7313704,15.2466945 41.5229495,15.142484 41.3481866,14.9787248 C41.3041723,14.9347104 41.2498016,14.8803397 41.1844274,14.8143182 C41.1184058,14.7593003 41.0465589,14.7321149 40.9708283,14.7321149 C38.6937329,14.8305 35.3227514,14.945714 30.8572366,15.0771098 L30.8404076,15.0771098 C30.6539939,15.0771098 30.4895874,15.0169137 30.3478353,14.8965215 C30.1944323,14.7651257 30.112229,14.6007192 30.1018727,14.4039491 C30.0902219,14.2829097 30.1096399,14.1715792 30.1594797,14.0673688 C30.208025,13.9631583 30.2850501,13.878366 30.3892605,13.8129917 C30.493471,13.7476175 30.6048014,13.7146067 30.7251936,13.7146067 L31.9569481,13.681596 C32.0443296,13.681596 32.1097038,13.6485852 32.1537182,13.5832109 C32.4598768,13.1346529 32.7498537,12.6634405 33.0242962,12.1708681 C33.0456561,12.1385046 33.0488924,12.1113193 33.0320634,12.0893121 C33.0158816,12.0673049 32.9964635,12.0563013 32.9744564,12.0563013 L29.6908563,12.0563013 C29.5270971,12.0563013 29.3846977,11.998047 29.2643055,11.8841275 C29.143266,11.7682662 29.0837172,11.6291032 29.0837172,11.4653439 C29.0837172,11.3009374 29.143266,11.1591853 29.2643055,11.0381458 C29.3846977,10.9184009 29.5270971,10.8575575 29.6908563,10.8575575 L43.4660536,10.8575575 Z" id="Fill-3"></path>
                    <path d="M70.7620064,11.23511 C70.837737,11.23511 70.8765732,11.191743 70.8765732,11.1037143 L70.8765732,9.24863882 C70.8765732,9.07387596 70.9367693,8.92888751 71.0571615,8.8130262 C71.1775537,8.6991067 71.3199531,8.64085242 71.4837123,8.64085242 C71.6481189,8.64085242 71.7879292,8.6991067 71.9024959,8.8130262 C72.01771,8.92888751 72.0746697,9.07387596 72.0746697,9.24863882 L72.0746697,12.3846613 C72.0746697,12.5484206 72.01771,12.6882309 71.9024959,12.8034449 C71.7879292,12.9180117 71.6481189,12.9756187 71.4837123,12.9756187 L71.4675306,12.9756187 C71.3037713,12.9756187 71.163961,12.9206008 71.048747,12.8112122 C70.9348275,12.7024708 70.8765732,12.5652496 70.8765732,12.4008431 C70.8765732,12.3464724 70.854566,12.3186398 70.8105517,12.3186398 L69.6616477,12.3186398 C69.5852698,12.3186398 69.5464336,12.3626541 69.5464336,12.4500356 L69.5464336,14.7976834 C69.5464336,14.9724462 69.4836485,15.1239074 69.3580781,15.2494777 C69.2325077,15.3750481 69.0810466,15.4384806 68.9062837,15.4384806 C68.7308736,15.4384806 68.580707,15.3750481 68.4551366,15.2494777 C68.328919,15.1239074 68.2661338,14.9724462 68.2661338,14.7976834 L68.2661338,8.70687394 C68.2661338,8.53211108 68.328919,8.38064993 68.4551366,8.25507958 C68.580707,8.12950922 68.7308736,8.06607677 68.9062837,8.06607677 C69.0810466,8.06607677 69.2325077,8.12950922 69.3580781,8.25507958 C69.4836485,8.38064993 69.5464336,8.53211108 69.5464336,8.70687394 L69.5464336,11.1037143 C69.5464336,11.191743 69.5852698,11.23511 69.6616477,11.23511 L70.7620064,11.23511 Z M72.6500926,7.22915684 C72.660449,7.28417478 72.6662744,7.33854544 72.6662744,7.39291611 C72.6662744,7.4919484 72.6436199,7.58515526 72.6009001,7.6725367 C72.523875,7.80393248 72.408661,7.9023175 72.2559053,7.96769175 C72.1238622,8.01235338 71.9957028,8.00070252 71.8694852,7.93532826 C71.7445621,7.86930673 71.6591225,7.76574356 71.6151081,7.62334419 C71.6047518,7.5799771 71.5931009,7.53596275 71.5827446,7.4919484 C71.5600902,7.42592688 71.5225485,7.39938881 71.4675306,7.40974513 C70.722523,7.48612297 69.7600327,7.58515526 68.5781179,7.70490019 C68.4137114,7.71655105 68.2661338,7.6725367 68.1347381,7.57415168 C68.0033423,7.47511939 67.9263172,7.3437236 67.9049572,7.17996433 C67.8933064,7.14695356 67.8887755,7.1139428 67.8887755,7.08157931 C67.8887755,6.9721907 67.9263172,6.86798025 68.0033423,6.76959523 C68.1023746,6.64920304 68.2272976,6.58318151 68.3807006,6.57217792 L68.4797329,6.57217792 C68.5341036,6.56182161 68.5781179,6.533989 68.6111287,6.48997465 C68.9392945,6.00905314 69.2396277,5.52748436 69.5134229,5.04526831 C69.5574372,4.97989405 69.5522591,4.91387253 69.4972411,4.84849827 C69.1574244,4.37793308 68.7095137,3.89053887 68.1515671,3.38696291 C68.0298803,3.27822157 67.9593279,3.14358944 67.937968,2.98500832 C67.9159608,2.82642721 67.9483243,2.67561333 68.036353,2.53321396 L68.0855455,2.4678397 C68.1612761,2.35909836 68.2661338,2.29307684 68.3975296,2.27042239 C68.5289254,2.24906249 68.6441394,2.28142598 68.7425245,2.36945468 C68.7852443,2.39146186 68.8130769,2.38563643 68.8247277,2.35262566 C69.0978756,1.81668622 69.3496636,1.25291416 69.5794444,0.661956774 C69.6448186,0.48719391 69.7652108,0.355798127 69.940621,0.267769426 C70.0396533,0.224402345 70.1432164,0.202395169 70.2526051,0.202395169 C70.3179793,0.202395169 70.389179,0.213398757 70.4662041,0.234758662 C70.6306107,0.289776601 70.7458247,0.399165208 70.8105517,0.562924485 C70.8765732,0.727331031 70.8655696,0.886559418 70.7775409,1.03931511 C70.2416015,2.01410352 69.8635959,2.67561333 69.6448186,3.02578633 C69.6014516,3.09180785 69.6066297,3.15718211 69.6616477,3.22320363 C69.8474141,3.40961736 70.0001698,3.5740239 70.1218565,3.715776 C70.1315656,3.73778318 70.15422,3.74878677 70.1865835,3.74878677 C70.2195943,3.74878677 70.2416015,3.73778318 70.2526051,3.715776 C70.4383715,3.34359583 70.6137816,2.9875974 70.7775409,2.64842799 C70.854566,2.48402145 70.9807837,2.36362925 71.1555465,2.28725141 C71.2429279,2.25424065 71.3303094,2.2380589 71.4189854,2.2380589 C71.5057195,2.2380589 71.5879228,2.25424065 71.6649479,2.28725141 C71.8287072,2.34226935 71.9374485,2.44842161 71.9931137,2.60700272 C72.0474844,2.76623111 72.0313026,2.92222315 71.9439212,3.07562611 C71.1115322,4.48732168 70.4170116,5.58703319 69.8584177,6.37540788 C69.8474141,6.39741506 69.8474141,6.41942223 69.8584177,6.44078214 C69.8694213,6.46343659 69.885603,6.4737929 69.9082575,6.4737929 L71.0571615,6.37540788 C71.1335393,6.37540788 71.1555465,6.34239712 71.123183,6.27702286 C71.0681651,6.14562708 71.0131471,6.02523489 70.9587765,5.91584628 C70.9037585,5.79545408 70.9018167,5.67506189 70.950362,5.55466969 C71.0002017,5.4342775 71.0843468,5.35207423 71.2053863,5.30805987 C71.3464911,5.26469279 71.4895378,5.2666346 71.6319371,5.31647438 C71.7736892,5.36501962 71.878547,5.4556374 71.9439212,5.58703319 C72.2610834,6.17863784 72.4960424,6.72622815 72.6500926,7.22915684 Z M65.8686463,10.8577517 L65.8686463,8.72305569 C65.8686463,8.54829282 65.9320787,8.39747895 66.0570018,8.27190859 C66.1838667,8.14633824 66.3340333,8.08290579 66.5094434,8.08290579 C66.683559,8.08290579 66.8317838,8.14633824 66.952176,8.27190859 C67.0732155,8.39747895 67.1334116,8.54829282 67.1334116,8.72305569 L67.1334116,10.8739335 C67.1334116,11.3561495 67.108168,11.7742858 67.0596228,12.129637 C67.009783,12.4856354 66.9172234,12.8578156 66.7800022,13.2461775 C66.6434283,13.6351867 66.4330656,13.9905379 66.1482668,14.3141728 C65.8634681,14.6365132 65.5016442,14.9297264 65.0640898,15.1918707 C64.9003305,15.2792522 64.7307458,15.3012593 64.5553357,15.2578923 C64.3805728,15.2138779 64.232348,15.1154929 64.1126031,14.9620899 C64.0135708,14.8306941 63.9805601,14.6831166 64.0135708,14.5187101 C64.0465816,14.3549508 64.1287848,14.2339113 64.2601806,14.1575335 C64.9715302,13.7089755 65.4420954,13.139378 65.6718762,12.4500356 C65.6822325,12.4176721 65.6777016,12.3872504 65.6550472,12.3594178 C65.63304,12.3328797 65.6116801,12.3186398 65.5903202,12.3186398 L64.6867315,12.3186398 C64.6427171,12.3186398 64.6213572,12.3464724 64.6213572,12.4008431 L64.6213572,12.4338538 C64.6213572,12.5976131 64.5643975,12.7348343 64.4485362,12.8442229 C64.3339694,12.9536115 64.1967482,13.0086295 64.0381671,13.0086295 C63.879586,13.0086295 63.743012,12.9536115 63.627798,12.8442229 C63.5132312,12.7348343 63.4556242,12.5976131 63.4556242,12.4338538 L63.4556242,9.23245707 C63.4556242,9.06805053 63.5132312,8.92888751 63.627798,8.8130262 C63.743012,8.6991067 63.879586,8.64085242 64.0381671,8.64085242 C64.1967482,8.64085242 64.3339694,8.6991067 64.4485362,8.8130262 C64.5643975,8.92888751 64.6213572,9.06805053 64.6213572,9.23245707 L64.6213572,11.1037143 C64.6213572,11.191743 64.6588989,11.23511 64.735924,11.23511 L65.7540795,11.23511 C65.8304573,11.23511 65.8686463,11.191743 65.8686463,11.1037143 L65.8686463,10.8577517 Z M66.2628336,5.89901726 C66.2078157,5.79027592 66.2058739,5.67506189 66.2544191,5.55466969 C66.3042589,5.4342775 66.388404,5.35725238 66.5094434,5.32488889 C66.6511955,5.28087454 66.7884167,5.28669997 66.9191652,5.34107064 C67.0512083,5.39608858 67.1495933,5.48347001 67.2156148,5.6038622 C67.4784064,6.10743816 67.6745292,6.60518869 67.8065722,7.09776105 C67.8499393,7.24016042 67.8337576,7.37414529 67.7567325,7.49971564 C67.6803546,7.62593327 67.5703187,7.71655105 67.4292139,7.77092172 L67.3631924,7.78710346 C67.2531565,7.83111781 67.1470042,7.8227033 67.0427938,7.76250721 C66.9392306,7.70231111 66.8757982,7.6123406 66.8544383,7.4919484 C66.8427874,7.44858132 66.8149548,7.43239958 66.772235,7.44275589 C66.0052202,7.51913374 64.9715302,7.61816603 63.6692232,7.73791095 C63.5048167,7.74891454 63.359181,7.70490019 63.2336106,7.60716244 C63.1080403,7.50813015 63.0342515,7.3825598 63.0122443,7.22915684 L63.0122443,7.13077182 C63.0122443,7.02138321 63.0504333,6.91717276 63.1268111,6.81878774 C63.2251961,6.69839555 63.3514137,6.63302129 63.5048167,6.6220177 L63.78379,6.60518869 C63.8601679,6.59483237 63.9151858,6.56182161 63.9481966,6.50680367 C64.2867187,6.03623847 64.5935246,5.54884426 64.867967,5.04526831 C64.9106868,4.97989405 64.9106868,4.91387253 64.867967,4.84849827 C64.5391539,4.39994025 64.1126031,3.92872779 63.58702,3.43615542 C63.4659805,3.3164105 63.4006063,3.1766002 63.3896027,3.01801909 C63.3785991,2.85943797 63.416788,2.71962768 63.5048167,2.59923548 L63.6032017,2.4678397 C63.6692232,2.38045827 63.7591938,2.33126576 63.8744078,2.32026217 C63.9883273,2.30925858 64.0893014,2.33644392 64.1779774,2.40246544 C64.1993373,2.42447262 64.2161663,2.42447262 64.2271699,2.40246544 C64.5119686,1.83351523 64.762462,1.25291416 64.9818865,0.661956774 C65.0479081,0.48719391 65.1631221,0.355798127 65.3275286,0.267769426 C65.4356227,0.213398757 65.5411277,0.185566153 65.6388654,0.185566153 C65.704887,0.185566153 65.7760867,0.19656974 65.8524645,0.217929646 C66.016871,0.273594854 66.1320851,0.382336192 66.1974593,0.546742738 C66.2628336,0.711149284 66.25183,0.869730401 66.1644486,1.02313336 C65.6388654,1.97526733 65.2498563,2.64324983 64.9987155,3.02578633 C64.9547012,3.09180785 64.9598794,3.15718211 65.0148973,3.22320363 C65.2123146,3.40961736 65.3650703,3.57855479 65.4751062,3.73195775 C65.4964661,3.75396493 65.5210623,3.76432124 65.5488949,3.76432124 C65.5760803,3.76432124 65.5954984,3.75396493 65.606502,3.73195775 C65.8246319,3.30540691 66.0006893,2.95005575 66.1320851,2.66460974 C66.2078157,2.50020319 66.3282079,2.38563643 66.4926144,2.32026217 C66.6570209,2.25424065 66.8214275,2.24906249 66.9851868,2.30343315 C67.1379425,2.35909836 67.2428002,2.46525062 67.2971708,2.62383174 C67.3515415,2.78241286 67.3405379,2.93322673 67.2648074,3.07562611 C66.4647818,4.4439546 65.7644358,5.55466969 65.1631221,6.40777138 C65.1404677,6.43042582 65.1359368,6.452433 65.1462931,6.4737929 C65.1572967,6.49644735 65.1793038,6.50680367 65.2123146,6.50680367 L66.3612186,6.40777138 C66.4375965,6.40777138 66.4647818,6.37022972 66.4434219,6.29320461 C66.388404,6.16180883 66.3282079,6.03041304 66.2628336,5.89901726 Z M59.4988635,11.153554 C59.4988635,11.2409355 59.5422306,11.2791244 59.6302593,11.2681208 L61.0257731,11.0053292 C61.1131545,10.9949729 61.1565216,10.9457804 61.1565216,10.8577517 L61.1565216,9.03503976 C61.1565216,8.95866192 61.1131545,8.920473 61.0257731,8.920473 L59.6302593,8.920473 C59.5422306,8.920473 59.4988635,8.95866192 59.4988635,9.03503976 L59.4988635,11.153554 Z M59.6302593,5.48864817 C59.5422306,5.48864817 59.4988635,5.52748436 59.4988635,5.6038622 L59.4988635,7.4919484 C59.4988635,7.5799771 59.5422306,7.62334419 59.6302593,7.62334419 L61.0257731,7.62334419 C61.1131545,7.62334419 61.1565216,7.5799771 61.1565216,7.4919484 L61.1565216,5.6038622 C61.1565216,5.52748436 61.1131545,5.48864817 61.0257731,5.48864817 L59.6302593,5.48864817 Z M61.0257731,4.20834837 C61.1131545,4.20834837 61.1565216,4.16498129 61.1565216,4.07695259 L61.1565216,2.20504814 C61.1565216,2.12867029 61.1131545,2.09048137 61.0257731,2.09048137 L59.6302593,2.09048137 C59.5422306,2.09048137 59.4988635,2.12867029 59.4988635,2.20504814 L59.4988635,4.07695259 C59.4988635,4.16498129 59.5422306,4.20834837 59.6302593,4.20834837 L61.0257731,4.20834837 Z M63.1520546,0.899504815 C63.2886286,1.03672603 63.3572392,1.20113257 63.3572392,1.39207718 C63.3572392,1.58366906 63.2886286,1.74807561 63.1520546,1.88464955 C63.0148334,2.02187076 62.8478378,2.09048137 62.6510677,2.09048137 L62.5850462,2.09048137 C62.5086684,2.09048137 62.4698322,2.12284486 62.4698322,2.18821912 L62.4698322,14.7653199 C62.4698322,14.9510863 62.4076943,15.1096675 62.2808294,15.2410632 C62.1559063,15.3731063 61.999267,15.4384806 61.8135005,15.4384806 C61.6270868,15.4384806 61.4710948,15.3731063 61.3461717,15.2410632 C61.2199541,15.1096675 61.1565216,14.9510863 61.1565216,14.7653199 L61.1565216,12.4992281 C61.1565216,12.4228502 61.1131545,12.3904868 61.0257731,12.4008431 C59.7124626,12.6636346 58.7434996,12.8604047 58.1195314,12.9918005 C58.0645135,13.002804 58.015321,13.0086295 57.9713066,13.0086295 C57.8295545,13.0086295 57.6975115,12.9652624 57.5777665,12.8772337 C57.4023564,12.7678451 57.298146,12.6144421 57.2651352,12.4176721 C57.2547789,12.3626541 57.2489534,12.3134616 57.2489534,12.2694473 C57.2489534,12.1276952 57.2923205,11.9962994 57.3803492,11.8752599 C57.5007414,11.7115007 57.6599698,11.6124684 57.8573871,11.5801049 C57.9331177,11.5697486 58.0043174,11.558745 58.0703389,11.5470941 C58.1467167,11.5257342 58.1849057,11.4765417 58.1849057,11.3995166 L58.1849057,2.17203737 C58.1849057,2.1176667 58.1570731,2.09048137 58.1027024,2.09048137 L58.0703389,2.09048137 C57.8729216,2.09048137 57.7065732,2.02187076 57.569352,1.88464955 C57.4321308,1.74807561 57.3641675,1.58366906 57.3641675,1.39207718 C57.3641675,1.20113257 57.4321308,1.03672603 57.569352,0.899504815 C57.7065732,0.762930873 57.8729216,0.694320268 58.0703389,0.694320268 L62.6510677,0.694320268 C62.8478378,0.694320268 63.0148334,0.762930873 63.1520546,0.899504815 Z" id="Fill-5"></path>
                    <path d="M95.9397686,11.6620492 L97.516518,11.6620492 L97.794844,11.6620492 C97.9702542,11.6620492 98.1210681,11.7138308 98.2466384,11.8186886 C98.3722088,11.9222517 98.4401721,12.0510584 98.451823,12.2038141 C98.4731829,12.3902278 98.4330521,12.551398 98.3281944,12.687972 C98.2246312,12.8251932 98.0906464,12.8996292 97.9262398,12.9099855 L97.5326997,12.9099855 L95.9397686,12.9099855 C95.2717861,12.9099855 94.8284062,12.7844152 94.609629,12.5319799 C94.3902045,12.2808392 94.2814632,11.810274 94.2814632,11.1202844 L94.2814632,9.1991874 C94.2814632,9.15582032 94.2588088,9.13381315 94.216089,9.13381315 C94.062686,9.13381315 93.9338793,9.07879521 93.8296688,8.9694066 C93.7261057,8.86001799 93.6743241,8.72926948 93.6743241,8.57521925 L93.6743241,8.52602674 C93.6743241,8.3616202 93.7312838,8.21986809 93.8471451,8.0994759 C93.9610646,7.9790837 94.1008749,7.91888761 94.2652815,7.91888761 L95.3326295,7.91888761 C95.4090073,7.91888761 95.4471962,7.88069868 95.4471962,7.80367357 L95.4471962,6.49036301 C95.4471962,6.41398517 95.4090073,6.37514898 95.3326295,6.37514898 L94.331303,6.37514898 C94.1668964,6.37514898 94.0264389,6.31754196 93.9125194,6.20297519 C93.7966581,6.08776115 93.7396983,5.94859813 93.7396983,5.78419159 C93.7396983,5.62043231 93.7966581,5.47803294 93.9125194,5.35764075 C94.0264389,5.23724855 94.1668964,5.17640518 94.331303,5.17640518 L94.4290407,5.17640518 C94.4950623,5.17640518 94.5222476,5.14986712 94.511244,5.09484918 C94.4452225,4.60227681 94.2982922,4.06633736 94.0678642,3.48573629 C94.0238498,3.35434051 94.0296752,3.22553381 94.0846932,3.09931618 C94.1390638,2.9743931 94.2322707,2.88960075 94.3630192,2.84493913 C94.4950623,2.79056846 94.6290471,2.79315754 94.7662683,2.8540009 C94.902195,2.91354973 94.9979909,3.00934567 95.0530089,3.14074145 C95.1954083,3.46890728 95.3158005,3.81390211 95.4141855,4.1750787 C95.4361926,4.25210381 95.4471962,4.3233035 95.4471962,4.38867776 C95.4471962,4.52007354 95.4141855,4.64629116 95.3488112,4.76603609 C95.2504262,4.95309708 95.096376,5.07802016 94.8892496,5.14404169 C94.8892496,5.16604887 94.8944278,5.17640518 94.9054314,5.17640518 L97.1216834,5.17640518 C97.132687,5.16604887 97.132687,5.16022344 97.1216834,5.16022344 C96.9682804,5.09484918 96.8595391,4.98804965 96.7935176,4.83982485 C96.7281433,4.69289459 96.7216706,4.53625529 96.7773358,4.37249601 C96.9087316,4.01131942 97.0394801,3.61713208 97.1708759,3.18993396 C97.2148902,3.02617469 97.3132753,2.90060433 97.4666782,2.81257563 C97.6200812,2.7251942 97.7786623,2.70836518 97.9430688,2.76338312 C98.1074754,2.80739747 98.2220422,2.90578249 98.2874164,3.05853818 C98.3534379,3.21258841 98.3534379,3.3653441 98.2874164,3.51809979 C98.2323985,3.65014284 98.1236571,3.89869447 97.9592506,4.26569648 C97.794844,4.63205123 97.6692737,4.90390457 97.5818923,5.07802016 C97.5708887,5.10067461 97.5728305,5.12203451 97.5903068,5.14404169 C97.6058412,5.16604887 97.6252593,5.17640518 97.6472665,5.17640518 L98.0084431,5.17640518 C98.1728496,5.17640518 98.3146017,5.23724855 98.4349939,5.35764075 C98.5553861,5.47803294 98.6162295,5.62043231 98.6162295,5.78419159 C98.6162295,5.94859813 98.5553861,6.08776115 98.4349939,6.20297519 C98.3146017,6.31754196 98.1728496,6.37514898 98.0084431,6.37514898 L96.9087316,6.37514898 C96.8317065,6.37514898 96.7935176,6.41398517 96.7935176,6.49036301 L96.7935176,7.80367357 C96.7935176,7.88069868 96.8317065,7.91888761 96.9087316,7.91888761 L98.0576356,7.91888761 C98.2220422,7.91888761 98.3637943,7.9790837 98.4848337,8.0994759 C98.6045786,8.21986809 98.665422,8.3616202 98.665422,8.52602674 C98.665422,8.69043329 98.6045786,8.83283266 98.4848337,8.95257758 C98.3637943,9.07361705 98.2220422,9.13381315 98.0576356,9.13381315 L95.7261695,9.13381315 C95.6381408,9.13381315 95.595421,9.17200207 95.595421,9.24837991 L95.595421,11.1202844 C95.595421,11.328058 95.6200173,11.4711046 95.6685625,11.5468352 C95.7184023,11.6238603 95.8083728,11.6620492 95.9397686,11.6620492 Z M86.2035353,10.2827172 C86.2248952,10.1086016 86.3070985,9.968144 86.4501451,9.86393355 C86.5918972,9.76037038 86.7511256,9.71959237 86.9258884,9.74095228 C87.1116549,9.77396304 87.2598797,9.86393355 87.3692683,10.0121584 C87.4786569,10.1597359 87.5168458,10.3215534 87.4844823,10.4963162 C87.287065,11.7338962 87.0411025,12.745579 86.7453002,13.5339537 C86.6792786,13.6983602 86.5653591,13.8077488 86.4009526,13.8621195 C86.236546,13.9171375 86.0779649,13.9061339 85.924562,13.8291088 C85.7705117,13.7527309 85.6617704,13.6323387 85.5963961,13.4679322 C85.5303746,13.3041729 85.5303746,13.1455918 85.5963961,12.9921888 C85.8591877,12.2588321 86.0611359,11.3558906 86.2035353,10.2827172 Z M99.600727,0.776911902 C99.8745221,0.776911902 100.104303,0.872707843 100.290717,1.06365245 C100.476483,1.25524433 100.56969,1.48243606 100.56969,1.74522762 L100.56969,13.812927 C100.56969,14.2071144 100.523087,14.5074476 100.42988,14.7158685 C100.33732,14.9236421 100.169677,15.0874014 99.9295401,15.2084408 C99.6227341,15.3501929 99.0861474,15.4272181 98.3204272,15.4382216 L98.2874164,15.4382216 C98.1010027,15.4382216 97.9262398,15.3780255 97.7618333,15.2576334 C97.6084303,15.1262376 97.499689,14.9624783 97.4343147,14.765061 C97.3786495,14.611658 97.3948313,14.4666696 97.4835072,14.3300956 C97.5708887,14.1928744 97.696459,14.1249111 97.8608656,14.1249111 L98.2874164,14.1249111 L98.6408258,14.1249111 L98.8628393,14.1249111 C98.9715807,14.1145548 99.0486058,14.0867222 99.0919729,14.0427078 C99.1353399,13.9993407 99.1579944,13.9223156 99.1579944,13.812927 L99.1579944,2.27081075 C99.1579944,2.19443291 99.1191582,2.15559672 99.0427803,2.15559672 L93.3293292,2.15559672 C93.2529514,2.15559672 93.2141152,2.19443291 93.2141152,2.27081075 L93.2141152,14.765061 C93.2141152,14.9624783 93.1461519,15.1288266 93.0089306,15.2660479 C92.8723567,15.4026218 92.7053611,15.4712324 92.5079438,15.4712324 C92.311821,15.4712324 92.1448254,15.4026218 92.0082514,15.2660479 C91.8710302,15.1288266 91.8017723,14.9624783 91.8017723,14.765061 L91.8017723,12.6963865 C91.8017723,12.6633757 91.788827,12.6394267 91.7609943,12.6219505 C91.733809,12.606416 91.7092128,12.6038269 91.6878529,12.6141832 L91.5564571,12.647194 C91.4684284,12.6802047 91.3862251,12.6963865 91.3098473,12.6963865 C91.155797,12.6963865 91.0082195,12.647194 90.8664674,12.548809 C90.6586938,12.4174132 90.527298,12.2264686 90.4729273,11.9740333 C90.3628914,11.481461 90.2204921,10.9837104 90.0457292,10.4801345 C89.9907113,10.3267315 89.9984785,10.179154 90.0709727,10.0367546 C90.1415251,9.89500251 90.2476774,9.80114838 90.390724,9.7577813 C90.5544833,9.70276336 90.7130644,9.71441422 90.8664674,9.79014479 C91.0192231,9.8671699 91.1234335,9.98238394 91.1784515,10.1351396 C91.4515994,10.8801472 91.6548421,11.579846 91.7855906,12.2368249 C91.7855906,12.2478285 91.788827,12.2530066 91.7940051,12.2530066 C91.7998305,12.2530066 91.8017723,12.2478285 91.8017723,12.2368249 L91.8017723,9.08462064 C91.8017723,9.05160987 91.791416,9.03024997 91.7700561,9.01859911 C91.7467544,9.00824279 91.7202163,9.00824279 91.6878529,9.01859911 C91.5888206,9.06261346 91.4846101,9.08462064 91.3752215,9.08462064 C91.2658329,9.08462064 91.155797,9.06261346 91.0470557,9.01859911 C90.8282785,8.90985777 90.6800537,8.7396258 90.6036758,8.50984499 L90.5868468,8.49301598 C90.5648396,8.4172854 90.5156471,8.37844921 90.4399166,8.37844921 L89.5693386,8.44382347 C89.4923135,8.45482706 89.4541245,8.49948868 89.4541245,8.57521925 L89.4541245,14.7488792 C89.4541245,14.9346457 89.3861612,15.0964632 89.2495873,15.2336844 C89.1123661,15.3702583 88.9479595,15.4382216 88.7570149,15.4382216 C88.5647757,15.4382216 88.4036056,15.3702583 88.2722098,15.2336844 C88.140814,15.0964632 88.0754397,14.9346457 88.0754397,14.7488792 L88.0754397,8.69043329 C88.0754397,8.60305186 88.0314254,8.5590375 87.9433967,8.5590375 C87.7142631,8.58104468 87.4042209,8.60305186 87.0165062,8.62441176 C86.627497,8.64706621 86.3782981,8.66324795 86.2695568,8.67360427 L86.219717,8.67360427 C86.0449542,8.67360427 85.8921985,8.6192336 85.7601554,8.50984499 C85.5847453,8.35708931 85.4973639,8.17067558 85.4973639,7.95189837 C85.4973639,7.79849541 85.5465564,7.66192147 85.6455887,7.540882 C85.7653336,7.3991299 85.9187365,7.32210479 86.1051503,7.3111012 L86.4831559,7.29491946 C86.5588864,7.28391587 86.6242607,7.24572695 86.6792786,7.17970542 C86.9860845,6.78551807 87.2385198,6.44699593 87.4346426,6.16154992 C87.4890132,6.08581935 87.4948387,6.01397239 87.4514716,5.94859813 C87.090295,5.423015 86.5977226,4.82687946 85.9737545,4.15889695 C85.8313551,4.005494 85.7601554,3.82555297 85.7601554,3.61713208 C85.7601554,3.45272553 85.8099952,3.29996984 85.9083802,3.1569232 L85.9575727,3.09154894 C86.0553105,2.97115675 86.178939,2.90578249 86.3265166,2.8947789 C86.4740941,2.88377532 86.6029008,2.9271424 86.7122894,3.02617469 C86.7453002,3.05853818 86.7724855,3.05853818 86.7944927,3.02617469 C87.18868,2.29281793 87.5440312,1.52127225 87.8624879,0.710890376 C87.9382185,0.525123924 88.0696143,0.388549983 88.256028,0.300521281 C88.354413,0.246150612 88.4534453,0.218318008 88.5511831,0.218318008 C88.6392118,0.218318008 88.7259459,0.234499755 88.8139746,0.267510518 C88.9887375,0.333532044 89.1149551,0.459102398 89.191333,0.64486885 C89.2243437,0.721893964 89.2405255,0.798919078 89.2405255,0.874649652 C89.2405255,0.973681942 89.2133402,1.07206696 89.1589695,1.17109925 C88.5673648,2.30964695 88.0644361,3.19575939 87.6482416,3.83008386 C87.6042273,3.89610539 87.6100527,3.96212691 87.6650706,4.02750117 C87.8948514,4.30129632 88.085796,4.54208071 88.2398463,4.74985434 C88.2612062,4.77186152 88.2890388,4.7828651 88.3214023,4.7828651 C88.354413,4.7828651 88.3757729,4.76603609 88.3874238,4.73302532 C88.8683453,3.97830866 89.2903653,3.26178092 89.6515419,2.58279483 C89.7499269,2.40803197 89.891679,2.2869925 90.0780927,2.22161824 C90.1654741,2.18860748 90.2476774,2.17177846 90.3247025,2.17177846 C90.4334439,2.17177846 90.5376543,2.19961107 90.6366866,2.25398174 C90.8010931,2.33100685 90.9098345,2.45722448 90.9648524,2.63198734 C90.9868596,2.6973616 90.9978632,2.75820496 90.9978632,2.81257563 C90.9978632,2.9336151 90.9648524,3.04235643 90.8994782,3.14074145 C89.9136861,4.6734765 88.9835594,5.99779064 88.1078032,7.11433116 C88.0974469,7.13633834 88.0974469,7.15834551 88.1078032,7.17970542 C88.1188068,7.20235986 88.1349886,7.21271618 88.157643,7.21271618 L89.8975044,7.09750215 C89.9305152,7.09750215 89.9525223,7.08714583 89.9635259,7.06449138 C89.9738822,7.04313148 89.9738822,7.01529887 89.9635259,6.98293538 C89.8865008,6.79652166 89.7881158,6.58874803 89.6683709,6.35896723 C89.5906985,6.21721513 89.5803422,6.07157941 89.6353601,5.92335461 C89.6897308,5.77642435 89.7881158,5.66962482 89.9305152,5.6036033 C90.0949217,5.53822904 90.2593283,5.52916726 90.4237348,5.57965431 C90.5868468,5.62819955 90.7130644,5.72982092 90.8010931,5.88257661 C91.1946332,6.60557705 91.5117954,7.28391587 91.7532271,7.91888761 C91.7635834,7.92989119 91.774587,7.93506935 91.7855906,7.93506935 C91.7965942,7.93506935 91.8017723,7.92989119 91.8017723,7.91888761 L91.8017723,1.74522762 C91.8017723,1.48243606 91.8949792,1.25524433 92.0813929,1.06365245 C92.2671594,0.872707843 92.4975875,0.776911902 92.7707353,0.776911902 L99.600727,0.776911902 Z" id="Fill-7"></path>
                </g>
                <g id="Group-9" transform="translate(70.000000, 0.000000)" stroke="#FFFFFF" stroke-linecap="round" stroke-linejoin="round" stroke-width="0.4">
                    <path d="M21.8429951,48.1699784 C21.2915902,48.1699784 20.8431616,47.7215498 20.8431616,47.1701449 C20.8431616,46.6187401 21.2915902,46.1703115 21.8429951,46.1703115 C22.3943999,46.1703115 22.8428285,46.6187401 22.8428285,47.1701449 C22.8428285,47.7215498 22.3943999,48.1699784 21.8429951,48.1699784 M30.2642204,35.93153 C29.844199,35.8168865 29.4084522,36.0634207 29.2927942,36.4844566 C28.2691189,40.2149362 26.2593066,43.2240747 23.4794551,45.1907689 C23.0325483,44.8204602 22.4669399,44.5891441 21.8429951,44.5891441 C20.4195894,44.5891441 19.2619943,45.7467392 19.2619943,47.1701449 C19.2619943,48.5930434 20.4195894,49.7511457 21.8429951,49.7511457 C23.2664008,49.7511457 24.4239959,48.5930434 24.4239959,47.1701449 C24.4239959,46.9439015 24.3859505,46.7288181 24.3311651,46.519822 C24.3418178,46.5132275 24.3539923,46.5106911 24.3641378,46.5035893 C27.4615416,44.3233335 29.6930319,41.0037444 30.8176543,36.9034635 C30.9328051,36.4819203 30.6852563,36.047188 30.2642204,35.93153" id="Fill-50"></path>
                    <path d="M31.4808475,31.7661805 C30.9294426,31.7661805 30.4805068,31.3177519 30.4805068,30.766347 C30.4805068,30.2149422 30.9294426,29.7665136 31.4808475,29.7665136 C32.0322523,29.7665136 32.4806809,30.2149422 32.4806809,30.766347 C32.4806809,31.3177519 32.0322523,31.7661805 31.4808475,31.7661805 M42.0275432,10.5819874 C36.2451477,10.5819874 31.5407056,15.2869367 31.5407056,21.0698395 C31.5407056,21.5060936 31.8942743,21.8601695 32.3315429,21.8601695 C32.767797,21.8601695 33.1213657,21.5060936 33.1213657,21.0698395 C33.1213657,16.1584303 37.1171486,12.1631547 42.0275432,12.1631547 C46.9389523,12.1631547 50.934228,16.1584303 50.934228,21.0698395 C50.934228,25.9807414 46.9389523,29.976017 42.0275432,29.976017 L33.9248848,29.976017 C33.5885633,28.9406745 32.6267753,28.1853462 31.4808475,28.1853462 C30.0574418,28.1853462 28.8998467,29.3429413 28.8998467,30.766347 C28.8998467,32.1892455 30.0574418,33.3473478 31.4808475,33.3473478 C32.6267753,33.3473478 33.5885633,32.5920196 33.9248848,31.5566771 L42.0275432,31.5566771 C47.8104459,31.5566771 52.5153953,26.852235 52.5153953,21.0698395 C52.5153953,15.2869367 47.8104459,10.5819874 42.0275432,10.5819874" id="Fill-52"></path>
                    <path d="M17.7090313,13.1578647 C18.2599288,13.1578647 18.7088647,13.6062933 18.7088647,14.1582054 C18.7088647,14.709103 18.2599288,15.1575316 17.7090313,15.1575316 C17.1576264,15.1575316 16.7086905,14.709103 16.7086905,14.1582054 C16.7086905,13.6062933 17.1576264,13.1578647 17.7090313,13.1578647 M25.3952192,30.7662963 C25.3952192,30.329535 25.0416505,29.9759663 24.6048891,29.9759663 L10.6543972,29.9759663 C5.74349528,29.9759663 1.74821966,25.9806907 1.74821966,21.0697888 C1.74821966,16.1588869 5.74349528,12.1636113 10.6543972,12.1636113 C12.2796972,12.1636113 13.85985,12.6074744 15.2421667,13.4404153 C15.1746995,13.6697023 15.1280304,13.9071057 15.1280304,14.1582054 C15.1280304,15.5811039 16.2856255,16.7392062 17.7090313,16.7392062 C19.1319297,16.7392062 20.2900321,15.5811039 20.2900321,14.1582054 C20.2900321,12.7347997 19.1319297,11.5766974 17.7090313,11.5766974 C17.1119719,11.5766974 16.5691907,11.7887371 16.1314148,12.1301313 C14.4853166,11.1196451 12.5967423,10.5819366 10.6543972,10.5819366 C4.87149442,10.5819366 0.166545033,15.286886 0.166545033,21.0697888 C0.166545033,26.8526915 4.87149442,31.5571336 10.6543972,31.5571336 L24.6048891,31.5571336 C25.0416505,31.5571336 25.3952192,31.2030577 25.3952192,30.7662963" id="Fill-54"></path>
                    <path d="M36.9855767,5.28034821 C37.5369815,5.28034821 37.9854101,5.72877681 37.9854101,6.28018166 C37.9854101,6.83158651 37.5369815,7.28001511 36.9855767,7.28001511 C36.4341718,7.28001511 35.9852359,6.83158651 35.9852359,6.28018166 C35.9852359,5.72877681 36.4341718,5.28034821 36.9855767,5.28034821 M12.5360726,8.17991594 C12.6791233,8.289994 12.8480449,8.34325758 13.0164593,8.34325758 C13.2538627,8.34325758 13.4887297,8.23622315 13.6444623,8.03331428 C16.8321606,3.87266794 21.0704196,1.58131954 25.5785473,1.58131954 C28.8362492,1.58131954 31.9853949,2.79928002 34.7084319,5.09062842 C34.5207412,5.4482553 34.4040686,5.84900031 34.4040686,6.28018166 C34.4040686,7.70358737 35.5621709,8.86118246 36.9855767,8.86118246 C38.4089824,8.86118246 39.5665775,7.70358737 39.5665775,6.28018166 C39.5665775,4.85728322 38.4089824,3.69918085 36.9855767,3.69918085 C36.5746862,3.69918085 36.192203,3.80418619 35.8472579,3.97513691 C32.8092049,1.37536704 29.2618506,0.000152181651 25.5785473,0.000152181651 C20.5672056,0.000152181651 15.8830543,2.5116567 12.3889636,7.07152625 C12.1236603,7.41799314 12.1896057,7.91461259 12.5360726,8.17991594" id="Fill-56"></path>
                </g>
            </g>
        </g>
    </g>
</svg>